M48
;DRILL file {KiCad 4.0.7} date 12/28/17 14:19:44
;FORMAT={-:-/ absolute / inch / decimal}
FMAT,2
INCH,TZ
T1C0.030
T2C0.031
T3C0.039
T4C0.047
T5C0.138
%
G90
G05
M72
T1
X2.8996Y-2.8917
X2.9996Y-2.8917
X3.0996Y-2.8917
X3.1996Y-2.8917
X3.2996Y-2.8917
X3.3996Y-2.8917
X3.4996Y-2.8917
X3.5996Y-2.8917
X3.6996Y-2.8917
X3.7996Y-2.8917
X3.8996Y-2.8917
X3.9996Y-2.8917
X4.0996Y-2.8917
X4.1996Y-2.8917
X4.2996Y-2.8917
X4.3996Y-2.8917
X4.3996Y-3.8248
X4.4996Y-2.8917
X4.4996Y-3.8248
T2
X2.8492Y-3.3567
X2.8819Y-3.3165
X2.9185Y-3.2807
X3.089Y-3.3681
X4.0547Y-3.1732
X4.1055Y-3.1713
X4.14Y-4.1487
X4.1929Y-4.1492
X4.2401Y-3.0428
X4.2457Y-4.1492
X4.2988Y-3.0732
X4.35Y-4.7803
X4.387Y-3.0783
X4.4154Y-3.2346
X4.4445Y-3.1252
X4.472Y-4.1669
X4.472Y-4.4669
X4.572Y-4.1669
X4.572Y-4.4669
X4.5858Y-3.565
X4.5953Y-2.9268
X4.598Y-2.8827
X4.6157Y-3.498
X4.6244Y-4.6705
X4.672Y-4.1669
X4.672Y-4.4669
X4.6776Y-4.6142
X4.6783Y-4.6697
X4.6906Y-3.498
X4.7335Y-2.837
X4.7646Y-4.7764
X4.7654Y-3.3441
X4.7717Y-3.5122
X4.772Y-4.1669
X4.772Y-4.4669
X4.802Y-3.2783
X4.8366Y-4.665
X4.872Y-4.1669
X4.872Y-4.4669
X4.972Y-4.1669
X4.972Y-4.4669
X5.0335Y-3.1747
X5.072Y-4.1669
X5.072Y-4.4669
X5.1154Y-2.9374
X5.1441Y-4.0012
X5.172Y-4.1669
X5.172Y-4.4669
X5.1949Y-4.002
X5.2291Y-3.1091
X5.2598Y-3.8217
X5.2697Y-2.7547
X5.2807Y-3.2358
X5.3118Y-4.9961
X5.3272Y-3.8488
X5.4398Y-4.2724
X5.5004Y-3.1732
X5.5449Y-4.2579
X5.5476Y-3.1736
X5.6508Y-4.3098
X5.6874Y-4.276
X5.698Y-3.2657
X5.6984Y-4.7752
X5.7177Y-4.0299
X5.7185Y-4.4937
X5.7681Y-3.9669
X5.7972Y-3.3917
X5.8181Y-4.1126
X5.8996Y-3.2677
X5.9262Y-3.9371
X5.9744Y-4.3268
X5.9791Y-4.1354
X6.0622Y-4.6067
X6.1559Y-3.7413
X6.2083Y-3.7409
X6.2256Y-4.4059
X6.2524Y-4.497
X6.2594Y-3.7421
X6.2823Y-4.3248
X6.387Y-4.1843
X6.4665Y-4.0063
X6.4783Y-3.2386
X6.511Y-2.9921
X6.5146Y-4.4803
X6.5232Y-4.0055
X6.5303Y-3.2386
X6.5378Y-4.0878
X6.5445Y-4.302
X6.5469Y-4.772
X6.5606Y-2.9913
X6.5846Y-3.2366
X6.6272Y-4.4693
X6.6319Y-4.289
X6.6484Y-4.0303
X6.6921Y-2.7811
X6.6957Y-3.326
X6.6992Y-3.2209
X6.6992Y-3.274
X6.7004Y-4.0291
X6.7323Y-3.6339
X6.7524Y-4.0291
X6.851Y-2.7817
X6.8709Y-3.9299
X6.9028Y-3.1157
X6.9382Y-4.2591
X6.9571Y-3.1665
T3
X2.9008Y-3.827
X2.902Y-2.6949
X2.9996Y-3.8248
X3.002Y-2.6949
X3.0996Y-3.8248
X3.102Y-2.6949
X3.1394Y-4.6669
X3.1996Y-3.8248
X3.202Y-2.6949
X3.2083Y-4.6669
X3.2717Y-4.6669
X3.2996Y-3.8248
X3.3398Y-2.6941
X3.3996Y-3.8248
X3.4094Y-5.0264
X3.4398Y-2.6941
X3.4693Y-5.0276
X3.4996Y-3.8248
X3.5024Y-4.9713
X3.5772Y-2.6886
X3.5996Y-3.8248
X3.6772Y-2.6886
X3.6996Y-3.8248
X3.7587Y-5.2878
X3.7772Y-2.6886
X3.7996Y-3.8248
X3.802Y-5.2433
X3.8476Y-5.2016
X3.8626Y-4.5689
X3.8996Y-3.8248
X3.9209Y-4.5701
X3.9209Y-4.6654
X3.9315Y-2.6886
X3.9988Y-4.2839
X3.9996Y-3.8248
X4.Y-4.2126
X4.0315Y-2.6886
X4.0886Y-4.3067
X4.0996Y-3.8248
X4.1315Y-2.6886
X4.1996Y-3.8248
X4.2106Y-4.6681
X4.2315Y-2.6886
X4.2646Y-3.9067
X4.2772Y-4.6669
X4.2996Y-3.8248
X4.326Y-3.9063
X4.3398Y-4.6669
X4.3862Y-3.9055
X4.3957Y-2.6862
X4.4957Y-2.6862
X4.5957Y-2.6862
X4.6957Y-2.6862
X4.7957Y-2.6862
X4.8957Y-2.6862
X4.9248Y-3.3043
X4.9957Y-2.6862
X5.0331Y-3.5602
X5.0866Y-4.9114
X5.0913Y-3.9087
X5.0949Y-4.665
X5.0957Y-2.6862
X5.0961Y-4.7248
X5.1402Y-4.9114
X5.1413Y-3.3043
X5.1508Y-3.9067
X5.1957Y-2.6862
X5.2Y-4.9137
X5.2Y-4.9137
X5.21Y-3.9067
X5.2225Y-4.6669
X5.287Y-4.6681
X5.2957Y-2.6862
X5.3016Y-4.322
X5.4846Y-2.6882
X5.5Y-2.9
X5.5Y-3.8331
X5.5598Y-4.9134
X5.5846Y-2.6882
X5.6Y-2.9
X5.6Y-3.8331
X5.6208Y-4.9137
X5.648Y-4.6744
X5.6846Y-2.6882
X5.7Y-2.9
X5.7Y-3.8331
X5.7087Y-4.674
X5.7685Y-4.6732
X5.7846Y-2.6882
X5.8Y-2.9
X5.8Y-3.8331
X5.8846Y-2.6882
X5.9Y-2.9
X5.9Y-3.8331
X5.9807Y-4.6732
X5.9823Y-4.7335
X5.9846Y-2.6882
X6.Y-2.9
X6.Y-3.8331
X6.0846Y-2.6882
X6.1Y-2.9
X6.1Y-3.8331
X6.1846Y-2.6882
X6.2Y-2.9
X6.2Y-3.8331
X6.2197Y-4.5898
X6.2827Y-4.5882
X6.2846Y-2.6882
X6.3Y-2.9
X6.3Y-3.8331
X6.3445Y-4.5882
X6.3509Y-4.9337
X6.3846Y-2.6882
X6.4Y-2.9
X6.4Y-3.8331
X6.4098Y-4.9337
X6.4685Y-4.9339
X6.4846Y-2.6882
X6.5Y-2.9
X6.5Y-3.8331
X6.5425Y-3.6882
X6.5846Y-2.6882
X6.598Y-3.6894
X6.6Y-2.9
X6.6Y-3.8331
X6.6606Y-3.6866
X6.6846Y-2.6882
X6.7Y-2.9
X6.7Y-3.8331
X6.7846Y-2.6882
X6.7909Y-4.9354
X6.8Y-2.9
X6.8Y-3.8331
X6.8016Y-4.5531
X6.8055Y-4.6142
X6.8496Y-4.9354
X6.8846Y-2.6882
X6.8988Y-2.8978
X6.9Y-3.8331
X6.91Y-4.9337
X6.9846Y-2.6882
T4
X4.28Y-5.47
X4.4178Y-5.47
X4.62Y-5.47
X4.7578Y-5.47
X4.95Y-5.47
X5.0878Y-5.47
X5.29Y-5.47
X5.4278Y-5.47
X5.64Y-5.47
X5.7778Y-5.47
X5.98Y-5.47
X6.1178Y-5.47
X6.33Y-5.47
X6.4678Y-5.47
T5
X2.8819Y-5.5268
X3.6268Y-3.4335
X6.2063Y-3.4323
X6.9484Y-5.5276
T3
X2.9579Y-5.2181G85X2.9579Y-5.2969
G05
X3.0366Y-5.4425G85X3.1154Y-5.4425
G05
X3.1941Y-5.2181G85X3.1941Y-5.2969
G05
T0
M30
