G04 #@! TF.FileFunction,Soldermask,Top*
%FSLAX46Y46*%
G04 Gerber Fmt 4.6, Leading zero omitted, Abs format (unit mm)*
G04 Created by KiCad (PCBNEW 4.0.7) date 12/28/17 14:19:57*
%MOMM*%
%LPD*%
G01*
G04 APERTURE LIST*
%ADD10C,0.100000*%
%ADD11R,1.000000X1.950000*%
%ADD12R,2.100000X2.100000*%
%ADD13O,2.100000X2.100000*%
%ADD14C,1.924000*%
%ADD15R,1.700000X1.900000*%
%ADD16R,1.650000X1.900000*%
%ADD17R,1.900000X1.650000*%
%ADD18R,2.900000X4.400000*%
%ADD19R,2.900000X2.400000*%
%ADD20R,2.700000X3.900000*%
%ADD21R,3.900000X2.700000*%
%ADD22R,3.900000X3.900000*%
%ADD23C,2.800000*%
%ADD24R,2.800000X2.800000*%
%ADD25R,3.300000X5.800000*%
%ADD26R,1.900000X1.700000*%
%ADD27C,2.400000*%
%ADD28R,2.000000X2.800000*%
%ADD29O,2.000000X2.800000*%
%ADD30R,5.000000X1.500000*%
%ADD31R,9.800000X11.200000*%
%ADD32R,2.400000X4.200000*%
%ADD33R,2.400000X1.900000*%
%ADD34R,1.000000X1.900000*%
%ADD35C,4.400000*%
G04 APERTURE END LIST*
D10*
D11*
X171577000Y-124808000D03*
X170307000Y-124808000D03*
X169037000Y-124808000D03*
X167767000Y-124808000D03*
X167767000Y-130208000D03*
X169037000Y-130208000D03*
X170307000Y-130208000D03*
X171577000Y-130208000D03*
X128397000Y-124808000D03*
X127127000Y-124808000D03*
X125857000Y-124808000D03*
X124587000Y-124808000D03*
X124587000Y-130208000D03*
X125857000Y-130208000D03*
X127127000Y-130208000D03*
X128397000Y-130208000D03*
X160401000Y-124808000D03*
X159131000Y-124808000D03*
X157861000Y-124808000D03*
X156591000Y-124808000D03*
X156591000Y-130208000D03*
X157861000Y-130208000D03*
X159131000Y-130208000D03*
X160401000Y-130208000D03*
D12*
X73680000Y-97205000D03*
D13*
X76190000Y-97150000D03*
X78730000Y-97150000D03*
X81270000Y-97150000D03*
X83810000Y-97150000D03*
X86350000Y-97150000D03*
X88890000Y-97150000D03*
X91430000Y-97150000D03*
X93970000Y-97150000D03*
X96510000Y-97150000D03*
X99050000Y-97150000D03*
X101590000Y-97150000D03*
X104130000Y-97150000D03*
X106670000Y-97150000D03*
X109210000Y-97150000D03*
D14*
X111750000Y-97150000D03*
X114290000Y-97150000D03*
X114290000Y-73450000D03*
X111750000Y-73450000D03*
X109210000Y-73450000D03*
X106670000Y-73450000D03*
X104130000Y-73450000D03*
X101590000Y-73450000D03*
X99050000Y-73450000D03*
X96510000Y-73450000D03*
X93970000Y-73450000D03*
X91430000Y-73450000D03*
X88890000Y-73450000D03*
X86350000Y-73450000D03*
X83810000Y-73450000D03*
X81270000Y-73450000D03*
X78730000Y-73450000D03*
X76190000Y-73450000D03*
X73650000Y-73450000D03*
D15*
X75890000Y-86120000D03*
X75890000Y-83420000D03*
D16*
X110640000Y-110500000D03*
X110640000Y-108000000D03*
D17*
X88920000Y-129794000D03*
X91420000Y-129794000D03*
D18*
X77724000Y-104392000D03*
X77724000Y-110492000D03*
D19*
X101600000Y-101378000D03*
X101600000Y-105378000D03*
D16*
X108458000Y-104628000D03*
X108458000Y-102128000D03*
D19*
X105156000Y-105378000D03*
X105156000Y-101378000D03*
D20*
X96297500Y-119492500D03*
X96297500Y-124892500D03*
X119750000Y-124790000D03*
X119750000Y-130190000D03*
D21*
X162270000Y-90330000D03*
X167670000Y-90330000D03*
D20*
X164084000Y-125316000D03*
X164084000Y-130716000D03*
X108204000Y-124808000D03*
X108204000Y-130208000D03*
X175514000Y-125316000D03*
X175514000Y-130716000D03*
X142748000Y-124300000D03*
X142748000Y-129700000D03*
X132080000Y-124808000D03*
X132080000Y-130208000D03*
X152908000Y-124300000D03*
X152908000Y-129700000D03*
D22*
X81130000Y-133540000D03*
X75130000Y-133540000D03*
X78130000Y-138240000D03*
D23*
X137866000Y-138938000D03*
D24*
X134366000Y-138938000D03*
D23*
X120848000Y-138938000D03*
D24*
X117348000Y-138938000D03*
D23*
X155392000Y-138938000D03*
D24*
X151892000Y-138938000D03*
D23*
X164282000Y-138938000D03*
D24*
X160782000Y-138938000D03*
D23*
X146756000Y-138938000D03*
D24*
X143256000Y-138938000D03*
D23*
X129230000Y-138938000D03*
D24*
X125730000Y-138938000D03*
D23*
X112212000Y-138938000D03*
D24*
X108712000Y-138938000D03*
D12*
X139310000Y-68280000D03*
D13*
X141850000Y-68280000D03*
X144390000Y-68280000D03*
X146930000Y-68280000D03*
X149470000Y-68280000D03*
X152010000Y-68280000D03*
X154550000Y-68280000D03*
X157090000Y-68280000D03*
X159630000Y-68280000D03*
X162170000Y-68280000D03*
X164710000Y-68280000D03*
X167250000Y-68280000D03*
X169790000Y-68280000D03*
X172330000Y-68280000D03*
X174870000Y-68280000D03*
X177410000Y-68280000D03*
D12*
X111650000Y-68230000D03*
D13*
X114190000Y-68230000D03*
X116730000Y-68230000D03*
X119270000Y-68230000D03*
X121810000Y-68230000D03*
X124350000Y-68230000D03*
X126890000Y-68230000D03*
X129430000Y-68230000D03*
X131970000Y-68230000D03*
X134510000Y-68230000D03*
D12*
X90860000Y-68290000D03*
D13*
X93400000Y-68290000D03*
X95940000Y-68290000D03*
D12*
X84830000Y-68430000D03*
D13*
X87370000Y-68430000D03*
D12*
X73710000Y-68450000D03*
D13*
X76250000Y-68450000D03*
X78790000Y-68450000D03*
X81330000Y-68450000D03*
D12*
X99860000Y-68290000D03*
D13*
X102400000Y-68290000D03*
X104940000Y-68290000D03*
X107480000Y-68290000D03*
D25*
X95882000Y-107442000D03*
X85982000Y-107442000D03*
D15*
X112776000Y-118538000D03*
X112776000Y-121238000D03*
X162610000Y-77860000D03*
X162610000Y-80560000D03*
X160060000Y-77860000D03*
X160060000Y-80560000D03*
X157580000Y-77900000D03*
X157580000Y-80600000D03*
X149900000Y-77900000D03*
X149900000Y-80600000D03*
X147320000Y-77920000D03*
X147320000Y-80620000D03*
X144800000Y-77920000D03*
X144800000Y-80620000D03*
X142040000Y-77900000D03*
X142040000Y-80600000D03*
X114808000Y-121238000D03*
X114808000Y-118538000D03*
D26*
X134510000Y-86110000D03*
X131810000Y-86110000D03*
D15*
X159330000Y-118520000D03*
X159330000Y-121220000D03*
X157010000Y-121280000D03*
X157010000Y-118580000D03*
X101092000Y-118538000D03*
X101092000Y-121238000D03*
X168656000Y-118538000D03*
X168656000Y-121238000D03*
X104130000Y-79990000D03*
X104130000Y-77290000D03*
X103124000Y-121238000D03*
X103124000Y-118538000D03*
X170688000Y-121238000D03*
X170688000Y-118538000D03*
X173670000Y-105232000D03*
X173670000Y-102532000D03*
X175956000Y-105232000D03*
X175956000Y-102532000D03*
X136144000Y-118538000D03*
X136144000Y-121238000D03*
X138176000Y-121238000D03*
X138176000Y-118538000D03*
X125010000Y-118500000D03*
X125010000Y-121200000D03*
X127010000Y-121200000D03*
X127010000Y-118500000D03*
X158684000Y-106248000D03*
X158684000Y-103548000D03*
X146812000Y-118538000D03*
X146812000Y-121238000D03*
X148844000Y-121238000D03*
X148844000Y-118538000D03*
X160970000Y-106248000D03*
X160970000Y-103548000D03*
X156100000Y-113440000D03*
X156100000Y-110740000D03*
X175710000Y-113470000D03*
X175710000Y-110770000D03*
X156144000Y-106248000D03*
X156144000Y-103548000D03*
X136840000Y-103548000D03*
X136840000Y-106248000D03*
X136840000Y-113868000D03*
X136840000Y-111168000D03*
X153790000Y-110710000D03*
X153790000Y-113410000D03*
X173420000Y-110770000D03*
X173420000Y-113470000D03*
X153604000Y-106248000D03*
X153604000Y-103548000D03*
X139380000Y-106248000D03*
X139380000Y-103548000D03*
X139380000Y-111168000D03*
X139380000Y-113868000D03*
D27*
X125090000Y-83930000D03*
X130590000Y-83930000D03*
X127840000Y-90430000D03*
D28*
X131370000Y-105840000D03*
D29*
X113590000Y-113460000D03*
X128830000Y-105840000D03*
X116130000Y-113460000D03*
X126290000Y-105840000D03*
X118670000Y-113460000D03*
X123750000Y-105840000D03*
X121210000Y-113460000D03*
X121210000Y-105840000D03*
X123750000Y-113460000D03*
X118670000Y-105840000D03*
X126290000Y-113460000D03*
X116130000Y-105840000D03*
X128830000Y-113460000D03*
X113590000Y-105840000D03*
X131370000Y-113460000D03*
D30*
X88071000Y-125320000D03*
X88071000Y-123620000D03*
X88071000Y-121920000D03*
X88071000Y-120220000D03*
X88071000Y-118520000D03*
D31*
X78921000Y-121920000D03*
D11*
X116205000Y-124808000D03*
X114935000Y-124808000D03*
X113665000Y-124808000D03*
X112395000Y-124808000D03*
X112395000Y-130208000D03*
X113665000Y-130208000D03*
X114935000Y-130208000D03*
X116205000Y-130208000D03*
D12*
X175230000Y-73605000D03*
D13*
X172720000Y-73660000D03*
X170180000Y-73660000D03*
X167640000Y-73660000D03*
X165100000Y-73660000D03*
X162560000Y-73660000D03*
X160020000Y-73660000D03*
X157480000Y-73660000D03*
X154940000Y-73660000D03*
X152400000Y-73660000D03*
X149860000Y-73660000D03*
X147320000Y-73660000D03*
X144780000Y-73660000D03*
X142240000Y-73660000D03*
X139700000Y-73660000D03*
X139700000Y-97360000D03*
X142240000Y-97360000D03*
X144780000Y-97360000D03*
X147320000Y-97360000D03*
X149860000Y-97360000D03*
X152400000Y-97360000D03*
X154940000Y-97360000D03*
X157480000Y-97360000D03*
X160020000Y-97360000D03*
X162560000Y-97360000D03*
X165100000Y-97360000D03*
X167640000Y-97360000D03*
X170180000Y-97360000D03*
X172720000Y-97360000D03*
X175260000Y-97360000D03*
D32*
X107798000Y-111760000D03*
D33*
X101498000Y-111760000D03*
X101498000Y-114060000D03*
X101498000Y-109460000D03*
D11*
X104521000Y-125316000D03*
X103251000Y-125316000D03*
X101981000Y-125316000D03*
X100711000Y-125316000D03*
X100711000Y-130716000D03*
X101981000Y-130716000D03*
X103251000Y-130716000D03*
X104521000Y-130716000D03*
D34*
X171130000Y-105754000D03*
X169860000Y-105754000D03*
X168590000Y-105754000D03*
X167320000Y-105754000D03*
X166050000Y-105754000D03*
X164780000Y-105754000D03*
X163510000Y-105754000D03*
X163510000Y-111154000D03*
X164780000Y-111154000D03*
X166050000Y-111154000D03*
X167320000Y-111154000D03*
X168590000Y-111154000D03*
X169860000Y-111154000D03*
X171130000Y-111154000D03*
D11*
X139573000Y-124300000D03*
X138303000Y-124300000D03*
X137033000Y-124300000D03*
X135763000Y-124300000D03*
X135763000Y-129700000D03*
X137033000Y-129700000D03*
X138303000Y-129700000D03*
X139573000Y-129700000D03*
X149733000Y-124300000D03*
X148463000Y-124300000D03*
X147193000Y-124300000D03*
X145923000Y-124300000D03*
X145923000Y-129700000D03*
X147193000Y-129700000D03*
X148463000Y-129700000D03*
X149733000Y-129700000D03*
D34*
X150302000Y-106262000D03*
X149032000Y-106262000D03*
X147762000Y-106262000D03*
X146492000Y-106262000D03*
X145222000Y-106262000D03*
X143952000Y-106262000D03*
X142682000Y-106262000D03*
X142682000Y-111662000D03*
X143952000Y-111662000D03*
X145222000Y-111662000D03*
X146492000Y-111662000D03*
X147762000Y-111662000D03*
X149032000Y-111662000D03*
X150302000Y-111662000D03*
D35*
X73200000Y-140380000D03*
X176490000Y-140400000D03*
X157640000Y-87180000D03*
X92120000Y-87210000D03*
M02*
