G04 #@! TF.FileFunction,Soldermask,Bot*
%FSLAX46Y46*%
G04 Gerber Fmt 4.6, Leading zero omitted, Abs format (unit mm)*
G04 Created by KiCad (PCBNEW 4.0.7) date 12/28/17 14:19:57*
%MOMM*%
%LPD*%
G01*
G04 APERTURE LIST*
%ADD10C,0.100000*%
%ADD11R,2.100000X2.100000*%
%ADD12O,2.100000X2.100000*%
%ADD13C,1.924000*%
%ADD14R,3.900000X3.900000*%
%ADD15C,2.800000*%
%ADD16R,2.800000X2.800000*%
%ADD17R,2.900000X2.400000*%
%ADD18C,2.400000*%
%ADD19R,2.000000X2.800000*%
%ADD20O,2.000000X2.800000*%
%ADD21C,4.400000*%
G04 APERTURE END LIST*
D10*
D11*
X73680000Y-97205000D03*
D12*
X76190000Y-97150000D03*
X78730000Y-97150000D03*
X81270000Y-97150000D03*
X83810000Y-97150000D03*
X86350000Y-97150000D03*
X88890000Y-97150000D03*
X91430000Y-97150000D03*
X93970000Y-97150000D03*
X96510000Y-97150000D03*
X99050000Y-97150000D03*
X101590000Y-97150000D03*
X104130000Y-97150000D03*
X106670000Y-97150000D03*
X109210000Y-97150000D03*
D13*
X111750000Y-97150000D03*
X114290000Y-97150000D03*
X114290000Y-73450000D03*
X111750000Y-73450000D03*
X109210000Y-73450000D03*
X106670000Y-73450000D03*
X104130000Y-73450000D03*
X101590000Y-73450000D03*
X99050000Y-73450000D03*
X96510000Y-73450000D03*
X93970000Y-73450000D03*
X91430000Y-73450000D03*
X88890000Y-73450000D03*
X86350000Y-73450000D03*
X83810000Y-73450000D03*
X81270000Y-73450000D03*
X78730000Y-73450000D03*
X76190000Y-73450000D03*
X73650000Y-73450000D03*
D14*
X81130000Y-133540000D03*
X75130000Y-133540000D03*
X78130000Y-138240000D03*
D15*
X137866000Y-138938000D03*
D16*
X134366000Y-138938000D03*
D15*
X120848000Y-138938000D03*
D16*
X117348000Y-138938000D03*
D15*
X155392000Y-138938000D03*
D16*
X151892000Y-138938000D03*
D15*
X164282000Y-138938000D03*
D16*
X160782000Y-138938000D03*
D15*
X146756000Y-138938000D03*
D16*
X143256000Y-138938000D03*
D15*
X129230000Y-138938000D03*
D16*
X125730000Y-138938000D03*
D15*
X112212000Y-138938000D03*
D16*
X108712000Y-138938000D03*
D11*
X139310000Y-68280000D03*
D12*
X141850000Y-68280000D03*
X144390000Y-68280000D03*
X146930000Y-68280000D03*
X149470000Y-68280000D03*
X152010000Y-68280000D03*
X154550000Y-68280000D03*
X157090000Y-68280000D03*
X159630000Y-68280000D03*
X162170000Y-68280000D03*
X164710000Y-68280000D03*
X167250000Y-68280000D03*
X169790000Y-68280000D03*
X172330000Y-68280000D03*
X174870000Y-68280000D03*
X177410000Y-68280000D03*
D11*
X111650000Y-68230000D03*
D12*
X114190000Y-68230000D03*
X116730000Y-68230000D03*
X119270000Y-68230000D03*
X121810000Y-68230000D03*
X124350000Y-68230000D03*
X126890000Y-68230000D03*
X129430000Y-68230000D03*
X131970000Y-68230000D03*
X134510000Y-68230000D03*
D11*
X90860000Y-68290000D03*
D12*
X93400000Y-68290000D03*
X95940000Y-68290000D03*
D11*
X84830000Y-68430000D03*
D12*
X87370000Y-68430000D03*
D11*
X73710000Y-68450000D03*
D12*
X76250000Y-68450000D03*
X78790000Y-68450000D03*
X81330000Y-68450000D03*
D11*
X99860000Y-68290000D03*
D12*
X102400000Y-68290000D03*
X104940000Y-68290000D03*
X107480000Y-68290000D03*
D17*
X155194000Y-133064000D03*
X155194000Y-129064000D03*
X158496000Y-133064000D03*
X158496000Y-129064000D03*
X163830000Y-133080000D03*
X163830000Y-129080000D03*
X167120000Y-133050000D03*
X167120000Y-129050000D03*
X114808000Y-132810000D03*
X114808000Y-128810000D03*
X111506000Y-132810000D03*
X111506000Y-128810000D03*
X132334000Y-132810000D03*
X132334000Y-128810000D03*
X129032000Y-132810000D03*
X129032000Y-128810000D03*
X121412000Y-132810000D03*
X121412000Y-128810000D03*
X124714000Y-132810000D03*
X124714000Y-128810000D03*
X146812000Y-132810000D03*
X146812000Y-128810000D03*
X150114000Y-132810000D03*
X150114000Y-128810000D03*
X138176000Y-132810000D03*
X138176000Y-128810000D03*
X141478000Y-132810000D03*
X141478000Y-128810000D03*
D18*
X125090000Y-83930000D03*
X130590000Y-83930000D03*
X127840000Y-90430000D03*
D19*
X131370000Y-105840000D03*
D20*
X113590000Y-113460000D03*
X128830000Y-105840000D03*
X116130000Y-113460000D03*
X126290000Y-105840000D03*
X118670000Y-113460000D03*
X123750000Y-105840000D03*
X121210000Y-113460000D03*
X121210000Y-105840000D03*
X123750000Y-113460000D03*
X118670000Y-105840000D03*
X126290000Y-113460000D03*
X116130000Y-105840000D03*
X128830000Y-113460000D03*
X113590000Y-105840000D03*
X131370000Y-113460000D03*
D11*
X175230000Y-73605000D03*
D12*
X172720000Y-73660000D03*
X170180000Y-73660000D03*
X167640000Y-73660000D03*
X165100000Y-73660000D03*
X162560000Y-73660000D03*
X160020000Y-73660000D03*
X157480000Y-73660000D03*
X154940000Y-73660000D03*
X152400000Y-73660000D03*
X149860000Y-73660000D03*
X147320000Y-73660000D03*
X144780000Y-73660000D03*
X142240000Y-73660000D03*
X139700000Y-73660000D03*
X139700000Y-97360000D03*
X142240000Y-97360000D03*
X144780000Y-97360000D03*
X147320000Y-97360000D03*
X149860000Y-97360000D03*
X152400000Y-97360000D03*
X154940000Y-97360000D03*
X157480000Y-97360000D03*
X160020000Y-97360000D03*
X162560000Y-97360000D03*
X165100000Y-97360000D03*
X167640000Y-97360000D03*
X170180000Y-97360000D03*
X172720000Y-97360000D03*
X175260000Y-97360000D03*
D21*
X73200000Y-140380000D03*
X176490000Y-140400000D03*
X157640000Y-87180000D03*
X92120000Y-87210000D03*
M02*
