G04 #@! TF.FileFunction,Legend,Bot*
%FSLAX46Y46*%
G04 Gerber Fmt 4.6, Leading zero omitted, Abs format (unit mm)*
G04 Created by KiCad (PCBNEW 4.0.7) date 12/28/17 14:19:57*
%MOMM*%
%LPD*%
G01*
G04 APERTURE LIST*
%ADD10C,0.100000*%
%ADD11C,0.120000*%
%ADD12C,0.150000*%
G04 APERTURE END LIST*
D10*
D11*
X153714000Y-130064000D02*
X153714000Y-132064000D01*
X156674000Y-132064000D02*
X156674000Y-130064000D01*
X157016000Y-130064000D02*
X157016000Y-132064000D01*
X159976000Y-132064000D02*
X159976000Y-130064000D01*
X162350000Y-130080000D02*
X162350000Y-132080000D01*
X165310000Y-132080000D02*
X165310000Y-130080000D01*
X165640000Y-130050000D02*
X165640000Y-132050000D01*
X168600000Y-132050000D02*
X168600000Y-130050000D01*
X113328000Y-129810000D02*
X113328000Y-131810000D01*
X116288000Y-131810000D02*
X116288000Y-129810000D01*
X110026000Y-129810000D02*
X110026000Y-131810000D01*
X112986000Y-131810000D02*
X112986000Y-129810000D01*
X130854000Y-129810000D02*
X130854000Y-131810000D01*
X133814000Y-131810000D02*
X133814000Y-129810000D01*
X127552000Y-129810000D02*
X127552000Y-131810000D01*
X130512000Y-131810000D02*
X130512000Y-129810000D01*
X119932000Y-129810000D02*
X119932000Y-131810000D01*
X122892000Y-131810000D02*
X122892000Y-129810000D01*
X123234000Y-129810000D02*
X123234000Y-131810000D01*
X126194000Y-131810000D02*
X126194000Y-129810000D01*
X145332000Y-129810000D02*
X145332000Y-131810000D01*
X148292000Y-131810000D02*
X148292000Y-129810000D01*
X148634000Y-129810000D02*
X148634000Y-131810000D01*
X151594000Y-131810000D02*
X151594000Y-129810000D01*
X136696000Y-129810000D02*
X136696000Y-131810000D01*
X139656000Y-131810000D02*
X139656000Y-129810000D01*
X139998000Y-129810000D02*
X139998000Y-131810000D01*
X142958000Y-131810000D02*
X142958000Y-129810000D01*
D12*
X155512381Y-125277143D02*
X155036190Y-124943809D01*
X155512381Y-124705714D02*
X154512381Y-124705714D01*
X154512381Y-125086667D01*
X154560000Y-125181905D01*
X154607619Y-125229524D01*
X154702857Y-125277143D01*
X154845714Y-125277143D01*
X154940952Y-125229524D01*
X154988571Y-125181905D01*
X155036190Y-125086667D01*
X155036190Y-124705714D01*
X155512381Y-126229524D02*
X155512381Y-125658095D01*
X155512381Y-125943809D02*
X154512381Y-125943809D01*
X154655238Y-125848571D01*
X154750476Y-125753333D01*
X154798095Y-125658095D01*
X154512381Y-127086667D02*
X154512381Y-126896190D01*
X154560000Y-126800952D01*
X154607619Y-126753333D01*
X154750476Y-126658095D01*
X154940952Y-126610476D01*
X155321905Y-126610476D01*
X155417143Y-126658095D01*
X155464762Y-126705714D01*
X155512381Y-126800952D01*
X155512381Y-126991429D01*
X155464762Y-127086667D01*
X155417143Y-127134286D01*
X155321905Y-127181905D01*
X155083810Y-127181905D01*
X154988571Y-127134286D01*
X154940952Y-127086667D01*
X154893333Y-126991429D01*
X154893333Y-126800952D01*
X154940952Y-126705714D01*
X154988571Y-126658095D01*
X155083810Y-126610476D01*
X158842381Y-125217143D02*
X158366190Y-124883809D01*
X158842381Y-124645714D02*
X157842381Y-124645714D01*
X157842381Y-125026667D01*
X157890000Y-125121905D01*
X157937619Y-125169524D01*
X158032857Y-125217143D01*
X158175714Y-125217143D01*
X158270952Y-125169524D01*
X158318571Y-125121905D01*
X158366190Y-125026667D01*
X158366190Y-124645714D01*
X158842381Y-126169524D02*
X158842381Y-125598095D01*
X158842381Y-125883809D02*
X157842381Y-125883809D01*
X157985238Y-125788571D01*
X158080476Y-125693333D01*
X158128095Y-125598095D01*
X157842381Y-126502857D02*
X157842381Y-127169524D01*
X158842381Y-126740952D01*
X164142381Y-125277143D02*
X163666190Y-124943809D01*
X164142381Y-124705714D02*
X163142381Y-124705714D01*
X163142381Y-125086667D01*
X163190000Y-125181905D01*
X163237619Y-125229524D01*
X163332857Y-125277143D01*
X163475714Y-125277143D01*
X163570952Y-125229524D01*
X163618571Y-125181905D01*
X163666190Y-125086667D01*
X163666190Y-124705714D01*
X163237619Y-125658095D02*
X163190000Y-125705714D01*
X163142381Y-125800952D01*
X163142381Y-126039048D01*
X163190000Y-126134286D01*
X163237619Y-126181905D01*
X163332857Y-126229524D01*
X163428095Y-126229524D01*
X163570952Y-126181905D01*
X164142381Y-125610476D01*
X164142381Y-126229524D01*
X163142381Y-126562857D02*
X163142381Y-127229524D01*
X164142381Y-126800952D01*
X167512381Y-125247143D02*
X167036190Y-124913809D01*
X167512381Y-124675714D02*
X166512381Y-124675714D01*
X166512381Y-125056667D01*
X166560000Y-125151905D01*
X166607619Y-125199524D01*
X166702857Y-125247143D01*
X166845714Y-125247143D01*
X166940952Y-125199524D01*
X166988571Y-125151905D01*
X167036190Y-125056667D01*
X167036190Y-124675714D01*
X166607619Y-125628095D02*
X166560000Y-125675714D01*
X166512381Y-125770952D01*
X166512381Y-126009048D01*
X166560000Y-126104286D01*
X166607619Y-126151905D01*
X166702857Y-126199524D01*
X166798095Y-126199524D01*
X166940952Y-126151905D01*
X167512381Y-125580476D01*
X167512381Y-126199524D01*
X166940952Y-126770952D02*
X166893333Y-126675714D01*
X166845714Y-126628095D01*
X166750476Y-126580476D01*
X166702857Y-126580476D01*
X166607619Y-126628095D01*
X166560000Y-126675714D01*
X166512381Y-126770952D01*
X166512381Y-126961429D01*
X166560000Y-127056667D01*
X166607619Y-127104286D01*
X166702857Y-127151905D01*
X166750476Y-127151905D01*
X166845714Y-127104286D01*
X166893333Y-127056667D01*
X166940952Y-126961429D01*
X166940952Y-126770952D01*
X166988571Y-126675714D01*
X167036190Y-126628095D01*
X167131429Y-126580476D01*
X167321905Y-126580476D01*
X167417143Y-126628095D01*
X167464762Y-126675714D01*
X167512381Y-126770952D01*
X167512381Y-126961429D01*
X167464762Y-127056667D01*
X167417143Y-127104286D01*
X167321905Y-127151905D01*
X167131429Y-127151905D01*
X167036190Y-127104286D01*
X166988571Y-127056667D01*
X166940952Y-126961429D01*
X115402381Y-124897143D02*
X114926190Y-124563809D01*
X115402381Y-124325714D02*
X114402381Y-124325714D01*
X114402381Y-124706667D01*
X114450000Y-124801905D01*
X114497619Y-124849524D01*
X114592857Y-124897143D01*
X114735714Y-124897143D01*
X114830952Y-124849524D01*
X114878571Y-124801905D01*
X114926190Y-124706667D01*
X114926190Y-124325714D01*
X114402381Y-125230476D02*
X114402381Y-125849524D01*
X114783333Y-125516190D01*
X114783333Y-125659048D01*
X114830952Y-125754286D01*
X114878571Y-125801905D01*
X114973810Y-125849524D01*
X115211905Y-125849524D01*
X115307143Y-125801905D01*
X115354762Y-125754286D01*
X115402381Y-125659048D01*
X115402381Y-125373333D01*
X115354762Y-125278095D01*
X115307143Y-125230476D01*
X114402381Y-126182857D02*
X114402381Y-126801905D01*
X114783333Y-126468571D01*
X114783333Y-126611429D01*
X114830952Y-126706667D01*
X114878571Y-126754286D01*
X114973810Y-126801905D01*
X115211905Y-126801905D01*
X115307143Y-126754286D01*
X115354762Y-126706667D01*
X115402381Y-126611429D01*
X115402381Y-126325714D01*
X115354762Y-126230476D01*
X115307143Y-126182857D01*
X112042381Y-124967143D02*
X111566190Y-124633809D01*
X112042381Y-124395714D02*
X111042381Y-124395714D01*
X111042381Y-124776667D01*
X111090000Y-124871905D01*
X111137619Y-124919524D01*
X111232857Y-124967143D01*
X111375714Y-124967143D01*
X111470952Y-124919524D01*
X111518571Y-124871905D01*
X111566190Y-124776667D01*
X111566190Y-124395714D01*
X111042381Y-125300476D02*
X111042381Y-125919524D01*
X111423333Y-125586190D01*
X111423333Y-125729048D01*
X111470952Y-125824286D01*
X111518571Y-125871905D01*
X111613810Y-125919524D01*
X111851905Y-125919524D01*
X111947143Y-125871905D01*
X111994762Y-125824286D01*
X112042381Y-125729048D01*
X112042381Y-125443333D01*
X111994762Y-125348095D01*
X111947143Y-125300476D01*
X111375714Y-126776667D02*
X112042381Y-126776667D01*
X110994762Y-126538571D02*
X111709048Y-126300476D01*
X111709048Y-126919524D01*
X132632381Y-124707143D02*
X132156190Y-124373809D01*
X132632381Y-124135714D02*
X131632381Y-124135714D01*
X131632381Y-124516667D01*
X131680000Y-124611905D01*
X131727619Y-124659524D01*
X131822857Y-124707143D01*
X131965714Y-124707143D01*
X132060952Y-124659524D01*
X132108571Y-124611905D01*
X132156190Y-124516667D01*
X132156190Y-124135714D01*
X131632381Y-125040476D02*
X131632381Y-125659524D01*
X132013333Y-125326190D01*
X132013333Y-125469048D01*
X132060952Y-125564286D01*
X132108571Y-125611905D01*
X132203810Y-125659524D01*
X132441905Y-125659524D01*
X132537143Y-125611905D01*
X132584762Y-125564286D01*
X132632381Y-125469048D01*
X132632381Y-125183333D01*
X132584762Y-125088095D01*
X132537143Y-125040476D01*
X131632381Y-126564286D02*
X131632381Y-126088095D01*
X132108571Y-126040476D01*
X132060952Y-126088095D01*
X132013333Y-126183333D01*
X132013333Y-126421429D01*
X132060952Y-126516667D01*
X132108571Y-126564286D01*
X132203810Y-126611905D01*
X132441905Y-126611905D01*
X132537143Y-126564286D01*
X132584762Y-126516667D01*
X132632381Y-126421429D01*
X132632381Y-126183333D01*
X132584762Y-126088095D01*
X132537143Y-126040476D01*
X129612381Y-124737143D02*
X129136190Y-124403809D01*
X129612381Y-124165714D02*
X128612381Y-124165714D01*
X128612381Y-124546667D01*
X128660000Y-124641905D01*
X128707619Y-124689524D01*
X128802857Y-124737143D01*
X128945714Y-124737143D01*
X129040952Y-124689524D01*
X129088571Y-124641905D01*
X129136190Y-124546667D01*
X129136190Y-124165714D01*
X128612381Y-125070476D02*
X128612381Y-125689524D01*
X128993333Y-125356190D01*
X128993333Y-125499048D01*
X129040952Y-125594286D01*
X129088571Y-125641905D01*
X129183810Y-125689524D01*
X129421905Y-125689524D01*
X129517143Y-125641905D01*
X129564762Y-125594286D01*
X129612381Y-125499048D01*
X129612381Y-125213333D01*
X129564762Y-125118095D01*
X129517143Y-125070476D01*
X128612381Y-126546667D02*
X128612381Y-126356190D01*
X128660000Y-126260952D01*
X128707619Y-126213333D01*
X128850476Y-126118095D01*
X129040952Y-126070476D01*
X129421905Y-126070476D01*
X129517143Y-126118095D01*
X129564762Y-126165714D01*
X129612381Y-126260952D01*
X129612381Y-126451429D01*
X129564762Y-126546667D01*
X129517143Y-126594286D01*
X129421905Y-126641905D01*
X129183810Y-126641905D01*
X129088571Y-126594286D01*
X129040952Y-126546667D01*
X128993333Y-126451429D01*
X128993333Y-126260952D01*
X129040952Y-126165714D01*
X129088571Y-126118095D01*
X129183810Y-126070476D01*
X121892381Y-124867143D02*
X121416190Y-124533809D01*
X121892381Y-124295714D02*
X120892381Y-124295714D01*
X120892381Y-124676667D01*
X120940000Y-124771905D01*
X120987619Y-124819524D01*
X121082857Y-124867143D01*
X121225714Y-124867143D01*
X121320952Y-124819524D01*
X121368571Y-124771905D01*
X121416190Y-124676667D01*
X121416190Y-124295714D01*
X120892381Y-125200476D02*
X120892381Y-125819524D01*
X121273333Y-125486190D01*
X121273333Y-125629048D01*
X121320952Y-125724286D01*
X121368571Y-125771905D01*
X121463810Y-125819524D01*
X121701905Y-125819524D01*
X121797143Y-125771905D01*
X121844762Y-125724286D01*
X121892381Y-125629048D01*
X121892381Y-125343333D01*
X121844762Y-125248095D01*
X121797143Y-125200476D01*
X120892381Y-126152857D02*
X120892381Y-126819524D01*
X121892381Y-126390952D01*
X125072381Y-124817143D02*
X124596190Y-124483809D01*
X125072381Y-124245714D02*
X124072381Y-124245714D01*
X124072381Y-124626667D01*
X124120000Y-124721905D01*
X124167619Y-124769524D01*
X124262857Y-124817143D01*
X124405714Y-124817143D01*
X124500952Y-124769524D01*
X124548571Y-124721905D01*
X124596190Y-124626667D01*
X124596190Y-124245714D01*
X124072381Y-125150476D02*
X124072381Y-125769524D01*
X124453333Y-125436190D01*
X124453333Y-125579048D01*
X124500952Y-125674286D01*
X124548571Y-125721905D01*
X124643810Y-125769524D01*
X124881905Y-125769524D01*
X124977143Y-125721905D01*
X125024762Y-125674286D01*
X125072381Y-125579048D01*
X125072381Y-125293333D01*
X125024762Y-125198095D01*
X124977143Y-125150476D01*
X124500952Y-126340952D02*
X124453333Y-126245714D01*
X124405714Y-126198095D01*
X124310476Y-126150476D01*
X124262857Y-126150476D01*
X124167619Y-126198095D01*
X124120000Y-126245714D01*
X124072381Y-126340952D01*
X124072381Y-126531429D01*
X124120000Y-126626667D01*
X124167619Y-126674286D01*
X124262857Y-126721905D01*
X124310476Y-126721905D01*
X124405714Y-126674286D01*
X124453333Y-126626667D01*
X124500952Y-126531429D01*
X124500952Y-126340952D01*
X124548571Y-126245714D01*
X124596190Y-126198095D01*
X124691429Y-126150476D01*
X124881905Y-126150476D01*
X124977143Y-126198095D01*
X125024762Y-126245714D01*
X125072381Y-126340952D01*
X125072381Y-126531429D01*
X125024762Y-126626667D01*
X124977143Y-126674286D01*
X124881905Y-126721905D01*
X124691429Y-126721905D01*
X124596190Y-126674286D01*
X124548571Y-126626667D01*
X124500952Y-126531429D01*
X147202381Y-124907143D02*
X146726190Y-124573809D01*
X147202381Y-124335714D02*
X146202381Y-124335714D01*
X146202381Y-124716667D01*
X146250000Y-124811905D01*
X146297619Y-124859524D01*
X146392857Y-124907143D01*
X146535714Y-124907143D01*
X146630952Y-124859524D01*
X146678571Y-124811905D01*
X146726190Y-124716667D01*
X146726190Y-124335714D01*
X146202381Y-125240476D02*
X146202381Y-125859524D01*
X146583333Y-125526190D01*
X146583333Y-125669048D01*
X146630952Y-125764286D01*
X146678571Y-125811905D01*
X146773810Y-125859524D01*
X147011905Y-125859524D01*
X147107143Y-125811905D01*
X147154762Y-125764286D01*
X147202381Y-125669048D01*
X147202381Y-125383333D01*
X147154762Y-125288095D01*
X147107143Y-125240476D01*
X147202381Y-126335714D02*
X147202381Y-126526190D01*
X147154762Y-126621429D01*
X147107143Y-126669048D01*
X146964286Y-126764286D01*
X146773810Y-126811905D01*
X146392857Y-126811905D01*
X146297619Y-126764286D01*
X146250000Y-126716667D01*
X146202381Y-126621429D01*
X146202381Y-126430952D01*
X146250000Y-126335714D01*
X146297619Y-126288095D01*
X146392857Y-126240476D01*
X146630952Y-126240476D01*
X146726190Y-126288095D01*
X146773810Y-126335714D01*
X146821429Y-126430952D01*
X146821429Y-126621429D01*
X146773810Y-126716667D01*
X146726190Y-126764286D01*
X146630952Y-126811905D01*
X150482381Y-124937143D02*
X150006190Y-124603809D01*
X150482381Y-124365714D02*
X149482381Y-124365714D01*
X149482381Y-124746667D01*
X149530000Y-124841905D01*
X149577619Y-124889524D01*
X149672857Y-124937143D01*
X149815714Y-124937143D01*
X149910952Y-124889524D01*
X149958571Y-124841905D01*
X150006190Y-124746667D01*
X150006190Y-124365714D01*
X149815714Y-125794286D02*
X150482381Y-125794286D01*
X149434762Y-125556190D02*
X150149048Y-125318095D01*
X150149048Y-125937143D01*
X149482381Y-126508571D02*
X149482381Y-126603810D01*
X149530000Y-126699048D01*
X149577619Y-126746667D01*
X149672857Y-126794286D01*
X149863333Y-126841905D01*
X150101429Y-126841905D01*
X150291905Y-126794286D01*
X150387143Y-126746667D01*
X150434762Y-126699048D01*
X150482381Y-126603810D01*
X150482381Y-126508571D01*
X150434762Y-126413333D01*
X150387143Y-126365714D01*
X150291905Y-126318095D01*
X150101429Y-126270476D01*
X149863333Y-126270476D01*
X149672857Y-126318095D01*
X149577619Y-126365714D01*
X149530000Y-126413333D01*
X149482381Y-126508571D01*
X138712381Y-124937143D02*
X138236190Y-124603809D01*
X138712381Y-124365714D02*
X137712381Y-124365714D01*
X137712381Y-124746667D01*
X137760000Y-124841905D01*
X137807619Y-124889524D01*
X137902857Y-124937143D01*
X138045714Y-124937143D01*
X138140952Y-124889524D01*
X138188571Y-124841905D01*
X138236190Y-124746667D01*
X138236190Y-124365714D01*
X138045714Y-125794286D02*
X138712381Y-125794286D01*
X137664762Y-125556190D02*
X138379048Y-125318095D01*
X138379048Y-125937143D01*
X138712381Y-126841905D02*
X138712381Y-126270476D01*
X138712381Y-126556190D02*
X137712381Y-126556190D01*
X137855238Y-126460952D01*
X137950476Y-126365714D01*
X137998095Y-126270476D01*
X141902381Y-124777143D02*
X141426190Y-124443809D01*
X141902381Y-124205714D02*
X140902381Y-124205714D01*
X140902381Y-124586667D01*
X140950000Y-124681905D01*
X140997619Y-124729524D01*
X141092857Y-124777143D01*
X141235714Y-124777143D01*
X141330952Y-124729524D01*
X141378571Y-124681905D01*
X141426190Y-124586667D01*
X141426190Y-124205714D01*
X141235714Y-125634286D02*
X141902381Y-125634286D01*
X140854762Y-125396190D02*
X141569048Y-125158095D01*
X141569048Y-125777143D01*
X140997619Y-126110476D02*
X140950000Y-126158095D01*
X140902381Y-126253333D01*
X140902381Y-126491429D01*
X140950000Y-126586667D01*
X140997619Y-126634286D01*
X141092857Y-126681905D01*
X141188095Y-126681905D01*
X141330952Y-126634286D01*
X141902381Y-126062857D01*
X141902381Y-126681905D01*
M02*
