G04 #@! TF.FileFunction,Legend,Top*
%FSLAX46Y46*%
G04 Gerber Fmt 4.6, Leading zero omitted, Abs format (unit mm)*
G04 Created by KiCad (PCBNEW 4.0.7) date 12/28/17 14:24:20*
%MOMM*%
%LPD*%
G01*
G04 APERTURE LIST*
%ADD10C,0.100000*%
%ADD11C,0.300000*%
%ADD12C,0.150000*%
%ADD13C,0.120000*%
G04 APERTURE END LIST*
D10*
D11*
X87358572Y-140438571D02*
X87358572Y-138938571D01*
X87358572Y-139652857D02*
X88215715Y-139652857D01*
X88215715Y-140438571D02*
X88215715Y-138938571D01*
X88787144Y-139438571D02*
X89144287Y-140438571D01*
X89501429Y-139438571D02*
X89144287Y-140438571D01*
X89001429Y-140795714D01*
X88930001Y-140867143D01*
X88787144Y-140938571D01*
X90715715Y-140438571D02*
X90715715Y-138938571D01*
X90715715Y-140367143D02*
X90572858Y-140438571D01*
X90287144Y-140438571D01*
X90144286Y-140367143D01*
X90072858Y-140295714D01*
X90001429Y-140152857D01*
X90001429Y-139724286D01*
X90072858Y-139581429D01*
X90144286Y-139510000D01*
X90287144Y-139438571D01*
X90572858Y-139438571D01*
X90715715Y-139510000D01*
X91430001Y-140438571D02*
X91430001Y-139438571D01*
X91430001Y-139724286D02*
X91501429Y-139581429D01*
X91572858Y-139510000D01*
X91715715Y-139438571D01*
X91858572Y-139438571D01*
X92572858Y-140438571D02*
X92430000Y-140367143D01*
X92358572Y-140295714D01*
X92287143Y-140152857D01*
X92287143Y-139724286D01*
X92358572Y-139581429D01*
X92430000Y-139510000D01*
X92572858Y-139438571D01*
X92787143Y-139438571D01*
X92930000Y-139510000D01*
X93001429Y-139581429D01*
X93072858Y-139724286D01*
X93072858Y-140152857D01*
X93001429Y-140295714D01*
X92930000Y-140367143D01*
X92787143Y-140438571D01*
X92572858Y-140438571D01*
X93715715Y-139438571D02*
X93715715Y-140938571D01*
X93715715Y-139510000D02*
X93858572Y-139438571D01*
X94144286Y-139438571D01*
X94287143Y-139510000D01*
X94358572Y-139581429D01*
X94430001Y-139724286D01*
X94430001Y-140152857D01*
X94358572Y-140295714D01*
X94287143Y-140367143D01*
X94144286Y-140438571D01*
X93858572Y-140438571D01*
X93715715Y-140367143D01*
X95287144Y-140438571D02*
X95144286Y-140367143D01*
X95072858Y-140295714D01*
X95001429Y-140152857D01*
X95001429Y-139724286D01*
X95072858Y-139581429D01*
X95144286Y-139510000D01*
X95287144Y-139438571D01*
X95501429Y-139438571D01*
X95644286Y-139510000D01*
X95715715Y-139581429D01*
X95787144Y-139724286D01*
X95787144Y-140152857D01*
X95715715Y-140295714D01*
X95644286Y-140367143D01*
X95501429Y-140438571D01*
X95287144Y-140438571D01*
X96430001Y-139438571D02*
X96430001Y-140438571D01*
X96430001Y-139581429D02*
X96501429Y-139510000D01*
X96644287Y-139438571D01*
X96858572Y-139438571D01*
X97001429Y-139510000D01*
X97072858Y-139652857D01*
X97072858Y-140438571D01*
X97787144Y-140438571D02*
X97787144Y-139438571D01*
X97787144Y-138938571D02*
X97715715Y-139010000D01*
X97787144Y-139081429D01*
X97858572Y-139010000D01*
X97787144Y-138938571D01*
X97787144Y-139081429D01*
X98430001Y-140367143D02*
X98572858Y-140438571D01*
X98858573Y-140438571D01*
X99001430Y-140367143D01*
X99072858Y-140224286D01*
X99072858Y-140152857D01*
X99001430Y-140010000D01*
X98858573Y-139938571D01*
X98644287Y-139938571D01*
X98501430Y-139867143D01*
X98430001Y-139724286D01*
X98430001Y-139652857D01*
X98501430Y-139510000D01*
X98644287Y-139438571D01*
X98858573Y-139438571D01*
X99001430Y-139510000D01*
X99358573Y-140581429D02*
X100501430Y-140581429D01*
X100644287Y-138938571D02*
X101144287Y-140438571D01*
X101644287Y-138938571D01*
X102930001Y-140438571D02*
X102072858Y-140438571D01*
X102501430Y-140438571D02*
X102501430Y-138938571D01*
X102358573Y-139152857D01*
X102215715Y-139295714D01*
X102072858Y-139367143D01*
X103572858Y-140295714D02*
X103644286Y-140367143D01*
X103572858Y-140438571D01*
X103501429Y-140367143D01*
X103572858Y-140295714D01*
X103572858Y-140438571D01*
X104572858Y-138938571D02*
X104715715Y-138938571D01*
X104858572Y-139010000D01*
X104930001Y-139081429D01*
X105001430Y-139224286D01*
X105072858Y-139510000D01*
X105072858Y-139867143D01*
X105001430Y-140152857D01*
X104930001Y-140295714D01*
X104858572Y-140367143D01*
X104715715Y-140438571D01*
X104572858Y-140438571D01*
X104430001Y-140367143D01*
X104358572Y-140295714D01*
X104287144Y-140152857D01*
X104215715Y-139867143D01*
X104215715Y-139510000D01*
X104287144Y-139224286D01*
X104358572Y-139081429D01*
X104430001Y-139010000D01*
X104572858Y-138938571D01*
D12*
X172247000Y-125433000D02*
X172197000Y-125433000D01*
X172247000Y-129583000D02*
X172102000Y-129583000D01*
X167097000Y-129583000D02*
X167242000Y-129583000D01*
X167097000Y-125433000D02*
X167242000Y-125433000D01*
X172247000Y-125433000D02*
X172247000Y-129583000D01*
X167097000Y-125433000D02*
X167097000Y-129583000D01*
X172197000Y-125433000D02*
X172197000Y-124033000D01*
X129067000Y-125433000D02*
X129017000Y-125433000D01*
X129067000Y-129583000D02*
X128922000Y-129583000D01*
X123917000Y-129583000D02*
X124062000Y-129583000D01*
X123917000Y-125433000D02*
X124062000Y-125433000D01*
X129067000Y-125433000D02*
X129067000Y-129583000D01*
X123917000Y-125433000D02*
X123917000Y-129583000D01*
X129017000Y-125433000D02*
X129017000Y-124033000D01*
X161071000Y-125433000D02*
X161021000Y-125433000D01*
X161071000Y-129583000D02*
X160926000Y-129583000D01*
X155921000Y-129583000D02*
X156066000Y-129583000D01*
X155921000Y-125433000D02*
X156066000Y-125433000D01*
X161071000Y-125433000D02*
X161071000Y-129583000D01*
X155921000Y-125433000D02*
X155921000Y-129583000D01*
X161021000Y-125433000D02*
X161021000Y-124033000D01*
X82250000Y-87950000D02*
X82250000Y-81900000D01*
X82850000Y-88150000D02*
X82850000Y-81750000D01*
X81600000Y-88050000D02*
X81600000Y-81650000D01*
X83578533Y-80550000D02*
G75*
G03X83578533Y-80550000I-1328533J0D01*
G01*
X83547112Y-89250000D02*
G75*
G03X83547112Y-89250000I-1297112J0D01*
G01*
X83550000Y-89250000D02*
X83550000Y-80400000D01*
X80950000Y-89300000D02*
X80950000Y-80350000D01*
X86350000Y-84700000D02*
X91600000Y-88850000D01*
X91600000Y-88850000D02*
X96650000Y-84650000D01*
X96650000Y-84650000D02*
X91400000Y-80700000D01*
X91400000Y-80700000D02*
X86350000Y-84550000D01*
X106150000Y-86300000D02*
X109900000Y-86300000D01*
X109850000Y-88800000D02*
X109850000Y-81150000D01*
X106150000Y-83700000D02*
X109750000Y-83700000D01*
X108000000Y-88750000D02*
X108000000Y-81100000D01*
X106150000Y-81100000D02*
X106150000Y-88850000D01*
X106100000Y-88800000D02*
X109800000Y-88800000D01*
X109750000Y-81150000D02*
X106150000Y-81150000D01*
X114550000Y-88700000D02*
X111300000Y-88700000D01*
X111300000Y-88700000D02*
X111300000Y-81150000D01*
X111300000Y-81150000D02*
X114500000Y-81150000D01*
X74300000Y-82200000D02*
X74300000Y-82750000D01*
X74300000Y-82750000D02*
X75900000Y-82750000D01*
X75900000Y-82750000D02*
X75900000Y-82150000D01*
X75900000Y-82150000D02*
X74300000Y-82150000D01*
X74300000Y-87200000D02*
X74300000Y-86800000D01*
X74300000Y-86800000D02*
X75950000Y-86800000D01*
X75950000Y-86800000D02*
X75950000Y-87150000D01*
X75950000Y-87150000D02*
X75950000Y-87250000D01*
X75950000Y-87250000D02*
X74300000Y-87250000D01*
X73650000Y-88400000D02*
X78200000Y-88400000D01*
X78200000Y-88400000D02*
X78200000Y-81200000D01*
X78200000Y-81200000D02*
X73600000Y-81200000D01*
X114100000Y-95750000D02*
X114400000Y-95750000D01*
X114450000Y-95700000D02*
G75*
G03X114550000Y-95500000I-50000J150000D01*
G01*
X114550000Y-74950000D02*
G75*
G03X114150000Y-74750000I-300000J-100000D01*
G01*
X114550000Y-75050000D02*
G75*
G03X114400000Y-74800000I-200000J50000D01*
G01*
X109250000Y-74750000D02*
X114100000Y-74750000D01*
X114550000Y-95600000D02*
X114550000Y-74950000D01*
X109075000Y-95750000D02*
X114050000Y-95750000D01*
X73500000Y-75000000D02*
X73500000Y-75500000D01*
X74000000Y-74750000D02*
X73750000Y-74750000D01*
X73750000Y-74750000D02*
G75*
G03X73500000Y-75000000I0J-250000D01*
G01*
X74200000Y-74750000D02*
X73900000Y-74750000D01*
X73500000Y-75850000D02*
X73500000Y-75400000D01*
X73500000Y-95350000D02*
X73500000Y-95500000D01*
X73500000Y-95500000D02*
G75*
G03X73750000Y-95750000I250000J0D01*
G01*
X74200000Y-95750000D02*
X73750000Y-95750000D01*
X73500000Y-94600000D02*
X73500000Y-95350000D01*
X109050000Y-74750000D02*
X109250000Y-74750000D01*
X74250000Y-74750000D02*
X109050000Y-74750000D01*
X109050000Y-95750000D02*
X74250000Y-95750000D01*
X73500000Y-94580000D02*
X73500000Y-75800000D01*
D13*
X76770000Y-84170000D02*
X76770000Y-85370000D01*
X75010000Y-85370000D02*
X75010000Y-84170000D01*
X109790000Y-108750000D02*
X109790000Y-109750000D01*
X111490000Y-109750000D02*
X111490000Y-108750000D01*
X90670000Y-128944000D02*
X89670000Y-128944000D01*
X89670000Y-130644000D02*
X90670000Y-130644000D01*
X73534000Y-111632000D02*
X76214000Y-111632000D01*
X81914000Y-111632000D02*
X79234000Y-111632000D01*
X81154000Y-103252000D02*
X79234000Y-103252000D01*
X74294000Y-103252000D02*
X76214000Y-103252000D01*
X73534000Y-111632000D02*
X73534000Y-104012000D01*
X73534000Y-104012000D02*
X74294000Y-103252000D01*
X81154000Y-103252000D02*
X81914000Y-104012000D01*
X81914000Y-104012000D02*
X81914000Y-111632000D01*
X103080000Y-104378000D02*
X103080000Y-102378000D01*
X100120000Y-102378000D02*
X100120000Y-104378000D01*
X107608000Y-102878000D02*
X107608000Y-103878000D01*
X109308000Y-103878000D02*
X109308000Y-102878000D01*
X103676000Y-102378000D02*
X103676000Y-104378000D01*
X106636000Y-104378000D02*
X106636000Y-102378000D01*
X98447500Y-117592500D02*
X94147500Y-117592500D01*
X94147500Y-117592500D02*
X94147500Y-124892500D01*
X98447500Y-117592500D02*
X98447500Y-124892500D01*
X121900000Y-122890000D02*
X117600000Y-122890000D01*
X117600000Y-122890000D02*
X117600000Y-130190000D01*
X121900000Y-122890000D02*
X121900000Y-130190000D01*
X160370000Y-88180000D02*
X160370000Y-92480000D01*
X160370000Y-92480000D02*
X167670000Y-92480000D01*
X160370000Y-88180000D02*
X167670000Y-88180000D01*
X166234000Y-123416000D02*
X161934000Y-123416000D01*
X161934000Y-123416000D02*
X161934000Y-130716000D01*
X166234000Y-123416000D02*
X166234000Y-130716000D01*
X110354000Y-122908000D02*
X106054000Y-122908000D01*
X106054000Y-122908000D02*
X106054000Y-130208000D01*
X110354000Y-122908000D02*
X110354000Y-130208000D01*
X177664000Y-123416000D02*
X173364000Y-123416000D01*
X173364000Y-123416000D02*
X173364000Y-130716000D01*
X177664000Y-123416000D02*
X177664000Y-130716000D01*
X144898000Y-122400000D02*
X140598000Y-122400000D01*
X140598000Y-122400000D02*
X140598000Y-129700000D01*
X144898000Y-122400000D02*
X144898000Y-129700000D01*
X134230000Y-122908000D02*
X129930000Y-122908000D01*
X129930000Y-122908000D02*
X129930000Y-130208000D01*
X134230000Y-122908000D02*
X134230000Y-130208000D01*
X155058000Y-122400000D02*
X150758000Y-122400000D01*
X150758000Y-122400000D02*
X150758000Y-129700000D01*
X155058000Y-122400000D02*
X155058000Y-129700000D01*
X76130000Y-138140000D02*
X67330000Y-138140000D01*
X67330000Y-138140000D02*
X67330000Y-128940000D01*
X82030000Y-135440000D02*
X82030000Y-138140000D01*
X82030000Y-138140000D02*
X80130000Y-138140000D01*
X67330000Y-128940000D02*
X82030000Y-128940000D01*
X82030000Y-128940000D02*
X82030000Y-131540000D01*
D12*
X136116000Y-143038000D02*
X136116000Y-143438000D01*
X132616000Y-141938000D02*
X139616000Y-141938000D01*
X132616000Y-143038000D02*
X139616000Y-143038000D01*
X132616000Y-135838000D02*
X132616000Y-143438000D01*
X139616000Y-143438000D02*
X139616000Y-135838000D01*
X139616000Y-135838000D02*
X132616000Y-135838000D01*
X119098000Y-143038000D02*
X119098000Y-143438000D01*
X115598000Y-141938000D02*
X122598000Y-141938000D01*
X115598000Y-143038000D02*
X122598000Y-143038000D01*
X115598000Y-135838000D02*
X115598000Y-143438000D01*
X122598000Y-143438000D02*
X122598000Y-135838000D01*
X122598000Y-135838000D02*
X115598000Y-135838000D01*
X153642000Y-143038000D02*
X153642000Y-143438000D01*
X150142000Y-141938000D02*
X157142000Y-141938000D01*
X150142000Y-143038000D02*
X157142000Y-143038000D01*
X150142000Y-135838000D02*
X150142000Y-143438000D01*
X157142000Y-143438000D02*
X157142000Y-135838000D01*
X157142000Y-135838000D02*
X150142000Y-135838000D01*
X162532000Y-143038000D02*
X162532000Y-143438000D01*
X159032000Y-141938000D02*
X166032000Y-141938000D01*
X159032000Y-143038000D02*
X166032000Y-143038000D01*
X159032000Y-135838000D02*
X159032000Y-143438000D01*
X166032000Y-143438000D02*
X166032000Y-135838000D01*
X166032000Y-135838000D02*
X159032000Y-135838000D01*
X145006000Y-143038000D02*
X145006000Y-143438000D01*
X141506000Y-141938000D02*
X148506000Y-141938000D01*
X141506000Y-143038000D02*
X148506000Y-143038000D01*
X141506000Y-135838000D02*
X141506000Y-143438000D01*
X148506000Y-143438000D02*
X148506000Y-135838000D01*
X148506000Y-135838000D02*
X141506000Y-135838000D01*
X127480000Y-143038000D02*
X127480000Y-143438000D01*
X123980000Y-141938000D02*
X130980000Y-141938000D01*
X123980000Y-143038000D02*
X130980000Y-143038000D01*
X123980000Y-135838000D02*
X123980000Y-143438000D01*
X130980000Y-143438000D02*
X130980000Y-135838000D01*
X130980000Y-135838000D02*
X123980000Y-135838000D01*
X110462000Y-143038000D02*
X110462000Y-143438000D01*
X106962000Y-141938000D02*
X113962000Y-141938000D01*
X106962000Y-143038000D02*
X113962000Y-143038000D01*
X106962000Y-135838000D02*
X106962000Y-143438000D01*
X113962000Y-143438000D02*
X113962000Y-135838000D01*
X113962000Y-135838000D02*
X106962000Y-135838000D01*
D13*
X137980000Y-66840000D02*
X178740000Y-66840000D01*
X178740000Y-66840000D02*
X178740000Y-64180000D01*
X178740000Y-64180000D02*
X137980000Y-64180000D01*
X137980000Y-64180000D02*
X137980000Y-66840000D01*
X138930000Y-64180000D02*
X138930000Y-58180000D01*
X138930000Y-58180000D02*
X139690000Y-58180000D01*
X139690000Y-58180000D02*
X139690000Y-64180000D01*
X138990000Y-64180000D02*
X138990000Y-58180000D01*
X139110000Y-64180000D02*
X139110000Y-58180000D01*
X139230000Y-64180000D02*
X139230000Y-58180000D01*
X139350000Y-64180000D02*
X139350000Y-58180000D01*
X139470000Y-64180000D02*
X139470000Y-58180000D01*
X139590000Y-64180000D02*
X139590000Y-58180000D01*
X138930000Y-67170000D02*
X138930000Y-66840000D01*
X139690000Y-67170000D02*
X139690000Y-66840000D01*
X140580000Y-66840000D02*
X140580000Y-64180000D01*
X141470000Y-64180000D02*
X141470000Y-58180000D01*
X141470000Y-58180000D02*
X142230000Y-58180000D01*
X142230000Y-58180000D02*
X142230000Y-64180000D01*
X141470000Y-67237071D02*
X141470000Y-66840000D01*
X142230000Y-67237071D02*
X142230000Y-66840000D01*
X143120000Y-66840000D02*
X143120000Y-64180000D01*
X144010000Y-64180000D02*
X144010000Y-58180000D01*
X144010000Y-58180000D02*
X144770000Y-58180000D01*
X144770000Y-58180000D02*
X144770000Y-64180000D01*
X144010000Y-67237071D02*
X144010000Y-66840000D01*
X144770000Y-67237071D02*
X144770000Y-66840000D01*
X145660000Y-66840000D02*
X145660000Y-64180000D01*
X146550000Y-64180000D02*
X146550000Y-58180000D01*
X146550000Y-58180000D02*
X147310000Y-58180000D01*
X147310000Y-58180000D02*
X147310000Y-64180000D01*
X146550000Y-67237071D02*
X146550000Y-66840000D01*
X147310000Y-67237071D02*
X147310000Y-66840000D01*
X148200000Y-66840000D02*
X148200000Y-64180000D01*
X149090000Y-64180000D02*
X149090000Y-58180000D01*
X149090000Y-58180000D02*
X149850000Y-58180000D01*
X149850000Y-58180000D02*
X149850000Y-64180000D01*
X149090000Y-67237071D02*
X149090000Y-66840000D01*
X149850000Y-67237071D02*
X149850000Y-66840000D01*
X150740000Y-66840000D02*
X150740000Y-64180000D01*
X151630000Y-64180000D02*
X151630000Y-58180000D01*
X151630000Y-58180000D02*
X152390000Y-58180000D01*
X152390000Y-58180000D02*
X152390000Y-64180000D01*
X151630000Y-67237071D02*
X151630000Y-66840000D01*
X152390000Y-67237071D02*
X152390000Y-66840000D01*
X153280000Y-66840000D02*
X153280000Y-64180000D01*
X154170000Y-64180000D02*
X154170000Y-58180000D01*
X154170000Y-58180000D02*
X154930000Y-58180000D01*
X154930000Y-58180000D02*
X154930000Y-64180000D01*
X154170000Y-67237071D02*
X154170000Y-66840000D01*
X154930000Y-67237071D02*
X154930000Y-66840000D01*
X155820000Y-66840000D02*
X155820000Y-64180000D01*
X156710000Y-64180000D02*
X156710000Y-58180000D01*
X156710000Y-58180000D02*
X157470000Y-58180000D01*
X157470000Y-58180000D02*
X157470000Y-64180000D01*
X156710000Y-67237071D02*
X156710000Y-66840000D01*
X157470000Y-67237071D02*
X157470000Y-66840000D01*
X158360000Y-66840000D02*
X158360000Y-64180000D01*
X159250000Y-64180000D02*
X159250000Y-58180000D01*
X159250000Y-58180000D02*
X160010000Y-58180000D01*
X160010000Y-58180000D02*
X160010000Y-64180000D01*
X159250000Y-67237071D02*
X159250000Y-66840000D01*
X160010000Y-67237071D02*
X160010000Y-66840000D01*
X160900000Y-66840000D02*
X160900000Y-64180000D01*
X161790000Y-64180000D02*
X161790000Y-58180000D01*
X161790000Y-58180000D02*
X162550000Y-58180000D01*
X162550000Y-58180000D02*
X162550000Y-64180000D01*
X161790000Y-67237071D02*
X161790000Y-66840000D01*
X162550000Y-67237071D02*
X162550000Y-66840000D01*
X163440000Y-66840000D02*
X163440000Y-64180000D01*
X164330000Y-64180000D02*
X164330000Y-58180000D01*
X164330000Y-58180000D02*
X165090000Y-58180000D01*
X165090000Y-58180000D02*
X165090000Y-64180000D01*
X164330000Y-67237071D02*
X164330000Y-66840000D01*
X165090000Y-67237071D02*
X165090000Y-66840000D01*
X165980000Y-66840000D02*
X165980000Y-64180000D01*
X166870000Y-64180000D02*
X166870000Y-58180000D01*
X166870000Y-58180000D02*
X167630000Y-58180000D01*
X167630000Y-58180000D02*
X167630000Y-64180000D01*
X166870000Y-67237071D02*
X166870000Y-66840000D01*
X167630000Y-67237071D02*
X167630000Y-66840000D01*
X168520000Y-66840000D02*
X168520000Y-64180000D01*
X169410000Y-64180000D02*
X169410000Y-58180000D01*
X169410000Y-58180000D02*
X170170000Y-58180000D01*
X170170000Y-58180000D02*
X170170000Y-64180000D01*
X169410000Y-67237071D02*
X169410000Y-66840000D01*
X170170000Y-67237071D02*
X170170000Y-66840000D01*
X171060000Y-66840000D02*
X171060000Y-64180000D01*
X171950000Y-64180000D02*
X171950000Y-58180000D01*
X171950000Y-58180000D02*
X172710000Y-58180000D01*
X172710000Y-58180000D02*
X172710000Y-64180000D01*
X171950000Y-67237071D02*
X171950000Y-66840000D01*
X172710000Y-67237071D02*
X172710000Y-66840000D01*
X173600000Y-66840000D02*
X173600000Y-64180000D01*
X174490000Y-64180000D02*
X174490000Y-58180000D01*
X174490000Y-58180000D02*
X175250000Y-58180000D01*
X175250000Y-58180000D02*
X175250000Y-64180000D01*
X174490000Y-67237071D02*
X174490000Y-66840000D01*
X175250000Y-67237071D02*
X175250000Y-66840000D01*
X176140000Y-66840000D02*
X176140000Y-64180000D01*
X177030000Y-64180000D02*
X177030000Y-58180000D01*
X177030000Y-58180000D02*
X177790000Y-58180000D01*
X177790000Y-58180000D02*
X177790000Y-64180000D01*
X177030000Y-67237071D02*
X177030000Y-66840000D01*
X177790000Y-67237071D02*
X177790000Y-66840000D01*
X139310000Y-69550000D02*
X138040000Y-69550000D01*
X138040000Y-69550000D02*
X138040000Y-68280000D01*
X110320000Y-66790000D02*
X135840000Y-66790000D01*
X135840000Y-66790000D02*
X135840000Y-64130000D01*
X135840000Y-64130000D02*
X110320000Y-64130000D01*
X110320000Y-64130000D02*
X110320000Y-66790000D01*
X111270000Y-64130000D02*
X111270000Y-58130000D01*
X111270000Y-58130000D02*
X112030000Y-58130000D01*
X112030000Y-58130000D02*
X112030000Y-64130000D01*
X111330000Y-64130000D02*
X111330000Y-58130000D01*
X111450000Y-64130000D02*
X111450000Y-58130000D01*
X111570000Y-64130000D02*
X111570000Y-58130000D01*
X111690000Y-64130000D02*
X111690000Y-58130000D01*
X111810000Y-64130000D02*
X111810000Y-58130000D01*
X111930000Y-64130000D02*
X111930000Y-58130000D01*
X111270000Y-67120000D02*
X111270000Y-66790000D01*
X112030000Y-67120000D02*
X112030000Y-66790000D01*
X112920000Y-66790000D02*
X112920000Y-64130000D01*
X113810000Y-64130000D02*
X113810000Y-58130000D01*
X113810000Y-58130000D02*
X114570000Y-58130000D01*
X114570000Y-58130000D02*
X114570000Y-64130000D01*
X113810000Y-67187071D02*
X113810000Y-66790000D01*
X114570000Y-67187071D02*
X114570000Y-66790000D01*
X115460000Y-66790000D02*
X115460000Y-64130000D01*
X116350000Y-64130000D02*
X116350000Y-58130000D01*
X116350000Y-58130000D02*
X117110000Y-58130000D01*
X117110000Y-58130000D02*
X117110000Y-64130000D01*
X116350000Y-67187071D02*
X116350000Y-66790000D01*
X117110000Y-67187071D02*
X117110000Y-66790000D01*
X118000000Y-66790000D02*
X118000000Y-64130000D01*
X118890000Y-64130000D02*
X118890000Y-58130000D01*
X118890000Y-58130000D02*
X119650000Y-58130000D01*
X119650000Y-58130000D02*
X119650000Y-64130000D01*
X118890000Y-67187071D02*
X118890000Y-66790000D01*
X119650000Y-67187071D02*
X119650000Y-66790000D01*
X120540000Y-66790000D02*
X120540000Y-64130000D01*
X121430000Y-64130000D02*
X121430000Y-58130000D01*
X121430000Y-58130000D02*
X122190000Y-58130000D01*
X122190000Y-58130000D02*
X122190000Y-64130000D01*
X121430000Y-67187071D02*
X121430000Y-66790000D01*
X122190000Y-67187071D02*
X122190000Y-66790000D01*
X123080000Y-66790000D02*
X123080000Y-64130000D01*
X123970000Y-64130000D02*
X123970000Y-58130000D01*
X123970000Y-58130000D02*
X124730000Y-58130000D01*
X124730000Y-58130000D02*
X124730000Y-64130000D01*
X123970000Y-67187071D02*
X123970000Y-66790000D01*
X124730000Y-67187071D02*
X124730000Y-66790000D01*
X125620000Y-66790000D02*
X125620000Y-64130000D01*
X126510000Y-64130000D02*
X126510000Y-58130000D01*
X126510000Y-58130000D02*
X127270000Y-58130000D01*
X127270000Y-58130000D02*
X127270000Y-64130000D01*
X126510000Y-67187071D02*
X126510000Y-66790000D01*
X127270000Y-67187071D02*
X127270000Y-66790000D01*
X128160000Y-66790000D02*
X128160000Y-64130000D01*
X129050000Y-64130000D02*
X129050000Y-58130000D01*
X129050000Y-58130000D02*
X129810000Y-58130000D01*
X129810000Y-58130000D02*
X129810000Y-64130000D01*
X129050000Y-67187071D02*
X129050000Y-66790000D01*
X129810000Y-67187071D02*
X129810000Y-66790000D01*
X130700000Y-66790000D02*
X130700000Y-64130000D01*
X131590000Y-64130000D02*
X131590000Y-58130000D01*
X131590000Y-58130000D02*
X132350000Y-58130000D01*
X132350000Y-58130000D02*
X132350000Y-64130000D01*
X131590000Y-67187071D02*
X131590000Y-66790000D01*
X132350000Y-67187071D02*
X132350000Y-66790000D01*
X133240000Y-66790000D02*
X133240000Y-64130000D01*
X134130000Y-64130000D02*
X134130000Y-58130000D01*
X134130000Y-58130000D02*
X134890000Y-58130000D01*
X134890000Y-58130000D02*
X134890000Y-64130000D01*
X134130000Y-67187071D02*
X134130000Y-66790000D01*
X134890000Y-67187071D02*
X134890000Y-66790000D01*
X111650000Y-69500000D02*
X110380000Y-69500000D01*
X110380000Y-69500000D02*
X110380000Y-68230000D01*
X89530000Y-66850000D02*
X97270000Y-66850000D01*
X97270000Y-66850000D02*
X97270000Y-64190000D01*
X97270000Y-64190000D02*
X89530000Y-64190000D01*
X89530000Y-64190000D02*
X89530000Y-66850000D01*
X90480000Y-64190000D02*
X90480000Y-58190000D01*
X90480000Y-58190000D02*
X91240000Y-58190000D01*
X91240000Y-58190000D02*
X91240000Y-64190000D01*
X90540000Y-64190000D02*
X90540000Y-58190000D01*
X90660000Y-64190000D02*
X90660000Y-58190000D01*
X90780000Y-64190000D02*
X90780000Y-58190000D01*
X90900000Y-64190000D02*
X90900000Y-58190000D01*
X91020000Y-64190000D02*
X91020000Y-58190000D01*
X91140000Y-64190000D02*
X91140000Y-58190000D01*
X90480000Y-67180000D02*
X90480000Y-66850000D01*
X91240000Y-67180000D02*
X91240000Y-66850000D01*
X92130000Y-66850000D02*
X92130000Y-64190000D01*
X93020000Y-64190000D02*
X93020000Y-58190000D01*
X93020000Y-58190000D02*
X93780000Y-58190000D01*
X93780000Y-58190000D02*
X93780000Y-64190000D01*
X93020000Y-67247071D02*
X93020000Y-66850000D01*
X93780000Y-67247071D02*
X93780000Y-66850000D01*
X94670000Y-66850000D02*
X94670000Y-64190000D01*
X95560000Y-64190000D02*
X95560000Y-58190000D01*
X95560000Y-58190000D02*
X96320000Y-58190000D01*
X96320000Y-58190000D02*
X96320000Y-64190000D01*
X95560000Y-67247071D02*
X95560000Y-66850000D01*
X96320000Y-67247071D02*
X96320000Y-66850000D01*
X90860000Y-69560000D02*
X89590000Y-69560000D01*
X89590000Y-69560000D02*
X89590000Y-68290000D01*
X83500000Y-66990000D02*
X88700000Y-66990000D01*
X88700000Y-66990000D02*
X88700000Y-64330000D01*
X88700000Y-64330000D02*
X83500000Y-64330000D01*
X83500000Y-64330000D02*
X83500000Y-66990000D01*
X84450000Y-64330000D02*
X84450000Y-58330000D01*
X84450000Y-58330000D02*
X85210000Y-58330000D01*
X85210000Y-58330000D02*
X85210000Y-64330000D01*
X84510000Y-64330000D02*
X84510000Y-58330000D01*
X84630000Y-64330000D02*
X84630000Y-58330000D01*
X84750000Y-64330000D02*
X84750000Y-58330000D01*
X84870000Y-64330000D02*
X84870000Y-58330000D01*
X84990000Y-64330000D02*
X84990000Y-58330000D01*
X85110000Y-64330000D02*
X85110000Y-58330000D01*
X84450000Y-67320000D02*
X84450000Y-66990000D01*
X85210000Y-67320000D02*
X85210000Y-66990000D01*
X86100000Y-66990000D02*
X86100000Y-64330000D01*
X86990000Y-64330000D02*
X86990000Y-58330000D01*
X86990000Y-58330000D02*
X87750000Y-58330000D01*
X87750000Y-58330000D02*
X87750000Y-64330000D01*
X86990000Y-67387071D02*
X86990000Y-66990000D01*
X87750000Y-67387071D02*
X87750000Y-66990000D01*
X84830000Y-69700000D02*
X83560000Y-69700000D01*
X83560000Y-69700000D02*
X83560000Y-68430000D01*
X72380000Y-67010000D02*
X82660000Y-67010000D01*
X82660000Y-67010000D02*
X82660000Y-64350000D01*
X82660000Y-64350000D02*
X72380000Y-64350000D01*
X72380000Y-64350000D02*
X72380000Y-67010000D01*
X73330000Y-64350000D02*
X73330000Y-58350000D01*
X73330000Y-58350000D02*
X74090000Y-58350000D01*
X74090000Y-58350000D02*
X74090000Y-64350000D01*
X73390000Y-64350000D02*
X73390000Y-58350000D01*
X73510000Y-64350000D02*
X73510000Y-58350000D01*
X73630000Y-64350000D02*
X73630000Y-58350000D01*
X73750000Y-64350000D02*
X73750000Y-58350000D01*
X73870000Y-64350000D02*
X73870000Y-58350000D01*
X73990000Y-64350000D02*
X73990000Y-58350000D01*
X73330000Y-67340000D02*
X73330000Y-67010000D01*
X74090000Y-67340000D02*
X74090000Y-67010000D01*
X74980000Y-67010000D02*
X74980000Y-64350000D01*
X75870000Y-64350000D02*
X75870000Y-58350000D01*
X75870000Y-58350000D02*
X76630000Y-58350000D01*
X76630000Y-58350000D02*
X76630000Y-64350000D01*
X75870000Y-67407071D02*
X75870000Y-67010000D01*
X76630000Y-67407071D02*
X76630000Y-67010000D01*
X77520000Y-67010000D02*
X77520000Y-64350000D01*
X78410000Y-64350000D02*
X78410000Y-58350000D01*
X78410000Y-58350000D02*
X79170000Y-58350000D01*
X79170000Y-58350000D02*
X79170000Y-64350000D01*
X78410000Y-67407071D02*
X78410000Y-67010000D01*
X79170000Y-67407071D02*
X79170000Y-67010000D01*
X80060000Y-67010000D02*
X80060000Y-64350000D01*
X80950000Y-64350000D02*
X80950000Y-58350000D01*
X80950000Y-58350000D02*
X81710000Y-58350000D01*
X81710000Y-58350000D02*
X81710000Y-64350000D01*
X80950000Y-67407071D02*
X80950000Y-67010000D01*
X81710000Y-67407071D02*
X81710000Y-67010000D01*
X73710000Y-69720000D02*
X72440000Y-69720000D01*
X72440000Y-69720000D02*
X72440000Y-68450000D01*
X98530000Y-66850000D02*
X108810000Y-66850000D01*
X108810000Y-66850000D02*
X108810000Y-64190000D01*
X108810000Y-64190000D02*
X98530000Y-64190000D01*
X98530000Y-64190000D02*
X98530000Y-66850000D01*
X99480000Y-64190000D02*
X99480000Y-58190000D01*
X99480000Y-58190000D02*
X100240000Y-58190000D01*
X100240000Y-58190000D02*
X100240000Y-64190000D01*
X99540000Y-64190000D02*
X99540000Y-58190000D01*
X99660000Y-64190000D02*
X99660000Y-58190000D01*
X99780000Y-64190000D02*
X99780000Y-58190000D01*
X99900000Y-64190000D02*
X99900000Y-58190000D01*
X100020000Y-64190000D02*
X100020000Y-58190000D01*
X100140000Y-64190000D02*
X100140000Y-58190000D01*
X99480000Y-67180000D02*
X99480000Y-66850000D01*
X100240000Y-67180000D02*
X100240000Y-66850000D01*
X101130000Y-66850000D02*
X101130000Y-64190000D01*
X102020000Y-64190000D02*
X102020000Y-58190000D01*
X102020000Y-58190000D02*
X102780000Y-58190000D01*
X102780000Y-58190000D02*
X102780000Y-64190000D01*
X102020000Y-67247071D02*
X102020000Y-66850000D01*
X102780000Y-67247071D02*
X102780000Y-66850000D01*
X103670000Y-66850000D02*
X103670000Y-64190000D01*
X104560000Y-64190000D02*
X104560000Y-58190000D01*
X104560000Y-58190000D02*
X105320000Y-58190000D01*
X105320000Y-58190000D02*
X105320000Y-64190000D01*
X104560000Y-67247071D02*
X104560000Y-66850000D01*
X105320000Y-67247071D02*
X105320000Y-66850000D01*
X106210000Y-66850000D02*
X106210000Y-64190000D01*
X107100000Y-64190000D02*
X107100000Y-58190000D01*
X107100000Y-58190000D02*
X107860000Y-58190000D01*
X107860000Y-58190000D02*
X107860000Y-64190000D01*
X107100000Y-67247071D02*
X107100000Y-66850000D01*
X107860000Y-67247071D02*
X107860000Y-66850000D01*
X99860000Y-69560000D02*
X98590000Y-69560000D01*
X98590000Y-69560000D02*
X98590000Y-68290000D01*
X84632000Y-104142000D02*
X84632000Y-101142000D01*
X84632000Y-101142000D02*
X97232000Y-101142000D01*
X97232000Y-101142000D02*
X97232000Y-104142000D01*
X97232000Y-110742000D02*
X97232000Y-113742000D01*
X97232000Y-113742000D02*
X84632000Y-113742000D01*
X84632000Y-113742000D02*
X84632000Y-110742000D01*
X111896000Y-120488000D02*
X111896000Y-119288000D01*
X113656000Y-119288000D02*
X113656000Y-120488000D01*
X161730000Y-79810000D02*
X161730000Y-78610000D01*
X163490000Y-78610000D02*
X163490000Y-79810000D01*
X159180000Y-79810000D02*
X159180000Y-78610000D01*
X160940000Y-78610000D02*
X160940000Y-79810000D01*
X156700000Y-79850000D02*
X156700000Y-78650000D01*
X158460000Y-78650000D02*
X158460000Y-79850000D01*
X149020000Y-79850000D02*
X149020000Y-78650000D01*
X150780000Y-78650000D02*
X150780000Y-79850000D01*
X146440000Y-79870000D02*
X146440000Y-78670000D01*
X148200000Y-78670000D02*
X148200000Y-79870000D01*
X143920000Y-79870000D02*
X143920000Y-78670000D01*
X145680000Y-78670000D02*
X145680000Y-79870000D01*
X141160000Y-79850000D02*
X141160000Y-78650000D01*
X142920000Y-78650000D02*
X142920000Y-79850000D01*
X115688000Y-119288000D02*
X115688000Y-120488000D01*
X113928000Y-120488000D02*
X113928000Y-119288000D01*
X132560000Y-85230000D02*
X133760000Y-85230000D01*
X133760000Y-86990000D02*
X132560000Y-86990000D01*
X158450000Y-120470000D02*
X158450000Y-119270000D01*
X160210000Y-119270000D02*
X160210000Y-120470000D01*
X157890000Y-119330000D02*
X157890000Y-120530000D01*
X156130000Y-120530000D02*
X156130000Y-119330000D01*
X100212000Y-120488000D02*
X100212000Y-119288000D01*
X101972000Y-119288000D02*
X101972000Y-120488000D01*
X167776000Y-120488000D02*
X167776000Y-119288000D01*
X169536000Y-119288000D02*
X169536000Y-120488000D01*
X105010000Y-78040000D02*
X105010000Y-79240000D01*
X103250000Y-79240000D02*
X103250000Y-78040000D01*
X104004000Y-119288000D02*
X104004000Y-120488000D01*
X102244000Y-120488000D02*
X102244000Y-119288000D01*
X171568000Y-119288000D02*
X171568000Y-120488000D01*
X169808000Y-120488000D02*
X169808000Y-119288000D01*
X174550000Y-103282000D02*
X174550000Y-104482000D01*
X172790000Y-104482000D02*
X172790000Y-103282000D01*
X176836000Y-103282000D02*
X176836000Y-104482000D01*
X175076000Y-104482000D02*
X175076000Y-103282000D01*
X135264000Y-120488000D02*
X135264000Y-119288000D01*
X137024000Y-119288000D02*
X137024000Y-120488000D01*
X139056000Y-119288000D02*
X139056000Y-120488000D01*
X137296000Y-120488000D02*
X137296000Y-119288000D01*
X124130000Y-120450000D02*
X124130000Y-119250000D01*
X125890000Y-119250000D02*
X125890000Y-120450000D01*
X127890000Y-119250000D02*
X127890000Y-120450000D01*
X126130000Y-120450000D02*
X126130000Y-119250000D01*
X159564000Y-104298000D02*
X159564000Y-105498000D01*
X157804000Y-105498000D02*
X157804000Y-104298000D01*
X145932000Y-120488000D02*
X145932000Y-119288000D01*
X147692000Y-119288000D02*
X147692000Y-120488000D01*
X149724000Y-119288000D02*
X149724000Y-120488000D01*
X147964000Y-120488000D02*
X147964000Y-119288000D01*
X161850000Y-104298000D02*
X161850000Y-105498000D01*
X160090000Y-105498000D02*
X160090000Y-104298000D01*
X156980000Y-111490000D02*
X156980000Y-112690000D01*
X155220000Y-112690000D02*
X155220000Y-111490000D01*
X176590000Y-111520000D02*
X176590000Y-112720000D01*
X174830000Y-112720000D02*
X174830000Y-111520000D01*
X157024000Y-104298000D02*
X157024000Y-105498000D01*
X155264000Y-105498000D02*
X155264000Y-104298000D01*
X135960000Y-105498000D02*
X135960000Y-104298000D01*
X137720000Y-104298000D02*
X137720000Y-105498000D01*
X137720000Y-111918000D02*
X137720000Y-113118000D01*
X135960000Y-113118000D02*
X135960000Y-111918000D01*
X152910000Y-112660000D02*
X152910000Y-111460000D01*
X154670000Y-111460000D02*
X154670000Y-112660000D01*
X172540000Y-112720000D02*
X172540000Y-111520000D01*
X174300000Y-111520000D02*
X174300000Y-112720000D01*
X154484000Y-104298000D02*
X154484000Y-105498000D01*
X152724000Y-105498000D02*
X152724000Y-104298000D01*
X140260000Y-104298000D02*
X140260000Y-105498000D01*
X138500000Y-105498000D02*
X138500000Y-104298000D01*
X138500000Y-113118000D02*
X138500000Y-111918000D01*
X140260000Y-111918000D02*
X140260000Y-113118000D01*
D12*
X127840000Y-87930000D02*
X128340000Y-88430000D01*
X127340000Y-88430000D02*
X127840000Y-87930000D01*
X127840000Y-89430000D02*
X127840000Y-87930000D01*
X129590000Y-87180000D02*
X130340000Y-87180000D01*
X130340000Y-87180000D02*
X130340000Y-84930000D01*
X126090000Y-87180000D02*
X125340000Y-87180000D01*
X125340000Y-87180000D02*
X125340000Y-84930000D01*
X126090000Y-86430000D02*
X129590000Y-86430000D01*
X129590000Y-86430000D02*
X129590000Y-87930000D01*
X129590000Y-87930000D02*
X126090000Y-87930000D01*
X126090000Y-87930000D02*
X126090000Y-86430000D01*
D13*
X132700000Y-110650000D02*
G75*
G02X132700000Y-108650000I0J1000000D01*
G01*
X132700000Y-108650000D02*
X132700000Y-107400000D01*
X132700000Y-107400000D02*
X112260000Y-107400000D01*
X112260000Y-107400000D02*
X112260000Y-111900000D01*
X112260000Y-111900000D02*
X132700000Y-111900000D01*
X132700000Y-111900000D02*
X132700000Y-110650000D01*
X83746000Y-127120000D02*
X85246000Y-127120000D01*
X85246000Y-127120000D02*
X85246000Y-126170000D01*
X85246000Y-126170000D02*
X90371000Y-126170000D01*
X83746000Y-116720000D02*
X85246000Y-116720000D01*
X85246000Y-116720000D02*
X85246000Y-117670000D01*
X85246000Y-117670000D02*
X86346000Y-117670000D01*
D12*
X116875000Y-125433000D02*
X116825000Y-125433000D01*
X116875000Y-129583000D02*
X116730000Y-129583000D01*
X111725000Y-129583000D02*
X111870000Y-129583000D01*
X111725000Y-125433000D02*
X111870000Y-125433000D01*
X116875000Y-125433000D02*
X116875000Y-129583000D01*
X111725000Y-125433000D02*
X111725000Y-129583000D01*
X116825000Y-125433000D02*
X116825000Y-124033000D01*
X141960000Y-79560000D02*
X141960000Y-91860000D01*
X139160000Y-79560000D02*
X153510000Y-79510000D01*
X153510000Y-79510000D02*
X153410000Y-91960000D01*
X153410000Y-91960000D02*
X139260000Y-91960000D01*
X175266231Y-91810000D02*
G75*
G03X175266231Y-91810000I-1006231J0D01*
G01*
X175289352Y-79710000D02*
G75*
G03X175289352Y-79710000I-1079352J0D01*
G01*
X175410000Y-83560000D02*
X173110000Y-83560000D01*
X173110000Y-83560000D02*
X173110000Y-87710000D01*
X173110000Y-87710000D02*
X175410000Y-87710000D01*
X175410000Y-95810000D02*
X175410000Y-95310000D01*
X174910000Y-96060000D02*
X175160000Y-96060000D01*
X175160000Y-96060000D02*
G75*
G03X175410000Y-95810000I0J250000D01*
G01*
X174710000Y-96060000D02*
X175010000Y-96060000D01*
X175410000Y-94960000D02*
X175410000Y-95410000D01*
X175410000Y-75460000D02*
X175410000Y-75310000D01*
X175410000Y-75310000D02*
G75*
G03X175160000Y-75060000I-250000J0D01*
G01*
X174710000Y-75060000D02*
X175160000Y-75060000D01*
X175410000Y-76210000D02*
X175410000Y-75460000D01*
X139860000Y-96060000D02*
X139660000Y-96060000D01*
X139060000Y-95460000D02*
G75*
G03X139660000Y-96060000I600000J0D01*
G01*
X140060000Y-75060000D02*
G75*
G03X139060000Y-75660000I-200000J-800000D01*
G01*
X139060000Y-75660000D02*
X139060000Y-95460000D01*
X174660000Y-96060000D02*
X139860000Y-96060000D01*
X139860000Y-75060000D02*
X174660000Y-75060000D01*
X175410000Y-76230000D02*
X175410000Y-95010000D01*
D13*
X106558000Y-115170000D02*
X106558000Y-113910000D01*
X106558000Y-108350000D02*
X106558000Y-109610000D01*
X102798000Y-115170000D02*
X106558000Y-115170000D01*
X100548000Y-108350000D02*
X106558000Y-108350000D01*
D12*
X105191000Y-125941000D02*
X105141000Y-125941000D01*
X105191000Y-130091000D02*
X105046000Y-130091000D01*
X100041000Y-130091000D02*
X100186000Y-130091000D01*
X100041000Y-125941000D02*
X100186000Y-125941000D01*
X105191000Y-125941000D02*
X105191000Y-130091000D01*
X100041000Y-125941000D02*
X100041000Y-130091000D01*
X105141000Y-125941000D02*
X105141000Y-124541000D01*
X171770000Y-106379000D02*
X171745000Y-106379000D01*
X171770000Y-110529000D02*
X171655000Y-110529000D01*
X162870000Y-110529000D02*
X162985000Y-110529000D01*
X162870000Y-106379000D02*
X162985000Y-106379000D01*
X171770000Y-106379000D02*
X171770000Y-110529000D01*
X162870000Y-106379000D02*
X162870000Y-110529000D01*
X171745000Y-106379000D02*
X171745000Y-105004000D01*
X140243000Y-124925000D02*
X140193000Y-124925000D01*
X140243000Y-129075000D02*
X140098000Y-129075000D01*
X135093000Y-129075000D02*
X135238000Y-129075000D01*
X135093000Y-124925000D02*
X135238000Y-124925000D01*
X140243000Y-124925000D02*
X140243000Y-129075000D01*
X135093000Y-124925000D02*
X135093000Y-129075000D01*
X140193000Y-124925000D02*
X140193000Y-123525000D01*
X150403000Y-124925000D02*
X150353000Y-124925000D01*
X150403000Y-129075000D02*
X150258000Y-129075000D01*
X145253000Y-129075000D02*
X145398000Y-129075000D01*
X145253000Y-124925000D02*
X145398000Y-124925000D01*
X150403000Y-124925000D02*
X150403000Y-129075000D01*
X145253000Y-124925000D02*
X145253000Y-129075000D01*
X150353000Y-124925000D02*
X150353000Y-123525000D01*
X150942000Y-106887000D02*
X150917000Y-106887000D01*
X150942000Y-111037000D02*
X150827000Y-111037000D01*
X142042000Y-111037000D02*
X142157000Y-111037000D01*
X142042000Y-106887000D02*
X142157000Y-106887000D01*
X150942000Y-106887000D02*
X150942000Y-111037000D01*
X142042000Y-106887000D02*
X142042000Y-111037000D01*
X150917000Y-106887000D02*
X150917000Y-105512000D01*
X171892381Y-122601905D02*
X172701905Y-122601905D01*
X172797143Y-122554286D01*
X172844762Y-122506667D01*
X172892381Y-122411429D01*
X172892381Y-122220952D01*
X172844762Y-122125714D01*
X172797143Y-122078095D01*
X172701905Y-122030476D01*
X171892381Y-122030476D01*
X172892381Y-121506667D02*
X172892381Y-121316191D01*
X172844762Y-121220952D01*
X172797143Y-121173333D01*
X172654286Y-121078095D01*
X172463810Y-121030476D01*
X172082857Y-121030476D01*
X171987619Y-121078095D01*
X171940000Y-121125714D01*
X171892381Y-121220952D01*
X171892381Y-121411429D01*
X171940000Y-121506667D01*
X171987619Y-121554286D01*
X172082857Y-121601905D01*
X172320952Y-121601905D01*
X172416190Y-121554286D01*
X172463810Y-121506667D01*
X172511429Y-121411429D01*
X172511429Y-121220952D01*
X172463810Y-121125714D01*
X172416190Y-121078095D01*
X172320952Y-121030476D01*
X128042381Y-123018095D02*
X128851905Y-123018095D01*
X128947143Y-122970476D01*
X128994762Y-122922857D01*
X129042381Y-122827619D01*
X129042381Y-122637142D01*
X128994762Y-122541904D01*
X128947143Y-122494285D01*
X128851905Y-122446666D01*
X128042381Y-122446666D01*
X129042381Y-121446666D02*
X129042381Y-122018095D01*
X129042381Y-121732381D02*
X128042381Y-121732381D01*
X128185238Y-121827619D01*
X128280476Y-121922857D01*
X128328095Y-122018095D01*
X128137619Y-121065714D02*
X128090000Y-121018095D01*
X128042381Y-120922857D01*
X128042381Y-120684761D01*
X128090000Y-120589523D01*
X128137619Y-120541904D01*
X128232857Y-120494285D01*
X128328095Y-120494285D01*
X128470952Y-120541904D01*
X129042381Y-121113333D01*
X129042381Y-120494285D01*
X160422381Y-122601905D02*
X161231905Y-122601905D01*
X161327143Y-122554286D01*
X161374762Y-122506667D01*
X161422381Y-122411429D01*
X161422381Y-122220952D01*
X161374762Y-122125714D01*
X161327143Y-122078095D01*
X161231905Y-122030476D01*
X160422381Y-122030476D01*
X160422381Y-121649524D02*
X160422381Y-120982857D01*
X161422381Y-121411429D01*
X72062381Y-85241905D02*
X72871905Y-85241905D01*
X72967143Y-85194286D01*
X73014762Y-85146667D01*
X73062381Y-85051429D01*
X73062381Y-84860952D01*
X73014762Y-84765714D01*
X72967143Y-84718095D01*
X72871905Y-84670476D01*
X72062381Y-84670476D01*
X72157619Y-84241905D02*
X72110000Y-84194286D01*
X72062381Y-84099048D01*
X72062381Y-83860952D01*
X72110000Y-83765714D01*
X72157619Y-83718095D01*
X72252857Y-83670476D01*
X72348095Y-83670476D01*
X72490952Y-83718095D01*
X73062381Y-84289524D01*
X73062381Y-83670476D01*
X76392381Y-80372857D02*
X75916190Y-80706191D01*
X76392381Y-80944286D02*
X75392381Y-80944286D01*
X75392381Y-80563333D01*
X75440000Y-80468095D01*
X75487619Y-80420476D01*
X75582857Y-80372857D01*
X75725714Y-80372857D01*
X75820952Y-80420476D01*
X75868571Y-80468095D01*
X75916190Y-80563333D01*
X75916190Y-80944286D01*
X75487619Y-79991905D02*
X75440000Y-79944286D01*
X75392381Y-79849048D01*
X75392381Y-79610952D01*
X75440000Y-79515714D01*
X75487619Y-79468095D01*
X75582857Y-79420476D01*
X75678095Y-79420476D01*
X75820952Y-79468095D01*
X76392381Y-80039524D01*
X76392381Y-79420476D01*
X75487619Y-79039524D02*
X75440000Y-78991905D01*
X75392381Y-78896667D01*
X75392381Y-78658571D01*
X75440000Y-78563333D01*
X75487619Y-78515714D01*
X75582857Y-78468095D01*
X75678095Y-78468095D01*
X75820952Y-78515714D01*
X76392381Y-79087143D01*
X76392381Y-78468095D01*
X109247143Y-109416666D02*
X109294762Y-109464285D01*
X109342381Y-109607142D01*
X109342381Y-109702380D01*
X109294762Y-109845238D01*
X109199524Y-109940476D01*
X109104286Y-109988095D01*
X108913810Y-110035714D01*
X108770952Y-110035714D01*
X108580476Y-109988095D01*
X108485238Y-109940476D01*
X108390000Y-109845238D01*
X108342381Y-109702380D01*
X108342381Y-109607142D01*
X108390000Y-109464285D01*
X108437619Y-109416666D01*
X109342381Y-108464285D02*
X109342381Y-109035714D01*
X109342381Y-108750000D02*
X108342381Y-108750000D01*
X108485238Y-108845238D01*
X108580476Y-108940476D01*
X108628095Y-109035714D01*
X90123334Y-128187143D02*
X90075715Y-128234762D01*
X89932858Y-128282381D01*
X89837620Y-128282381D01*
X89694762Y-128234762D01*
X89599524Y-128139524D01*
X89551905Y-128044286D01*
X89504286Y-127853810D01*
X89504286Y-127710952D01*
X89551905Y-127520476D01*
X89599524Y-127425238D01*
X89694762Y-127330000D01*
X89837620Y-127282381D01*
X89932858Y-127282381D01*
X90075715Y-127330000D01*
X90123334Y-127377619D01*
X90456667Y-127282381D02*
X91075715Y-127282381D01*
X90742381Y-127663333D01*
X90885239Y-127663333D01*
X90980477Y-127710952D01*
X91028096Y-127758571D01*
X91075715Y-127853810D01*
X91075715Y-128091905D01*
X91028096Y-128187143D01*
X90980477Y-128234762D01*
X90885239Y-128282381D01*
X90599524Y-128282381D01*
X90504286Y-128234762D01*
X90456667Y-128187143D01*
X73287143Y-107946666D02*
X73334762Y-107994285D01*
X73382381Y-108137142D01*
X73382381Y-108232380D01*
X73334762Y-108375238D01*
X73239524Y-108470476D01*
X73144286Y-108518095D01*
X72953810Y-108565714D01*
X72810952Y-108565714D01*
X72620476Y-108518095D01*
X72525238Y-108470476D01*
X72430000Y-108375238D01*
X72382381Y-108232380D01*
X72382381Y-108137142D01*
X72430000Y-107994285D01*
X72477619Y-107946666D01*
X72715714Y-107089523D02*
X73382381Y-107089523D01*
X72334762Y-107327619D02*
X73049048Y-107565714D01*
X73049048Y-106946666D01*
X73895429Y-103042952D02*
X73895429Y-102281047D01*
X74276381Y-102661999D02*
X73514476Y-102661999D01*
X102067143Y-100866666D02*
X102114762Y-100914285D01*
X102162381Y-101057142D01*
X102162381Y-101152380D01*
X102114762Y-101295238D01*
X102019524Y-101390476D01*
X101924286Y-101438095D01*
X101733810Y-101485714D01*
X101590952Y-101485714D01*
X101400476Y-101438095D01*
X101305238Y-101390476D01*
X101210000Y-101295238D01*
X101162381Y-101152380D01*
X101162381Y-101057142D01*
X101210000Y-100914285D01*
X101257619Y-100866666D01*
X101162381Y-99961904D02*
X101162381Y-100438095D01*
X101638571Y-100485714D01*
X101590952Y-100438095D01*
X101543333Y-100342857D01*
X101543333Y-100104761D01*
X101590952Y-100009523D01*
X101638571Y-99961904D01*
X101733810Y-99914285D01*
X101971905Y-99914285D01*
X102067143Y-99961904D01*
X102114762Y-100009523D01*
X102162381Y-100104761D01*
X102162381Y-100342857D01*
X102114762Y-100438095D01*
X102067143Y-100485714D01*
X108707143Y-100956666D02*
X108754762Y-101004285D01*
X108802381Y-101147142D01*
X108802381Y-101242380D01*
X108754762Y-101385238D01*
X108659524Y-101480476D01*
X108564286Y-101528095D01*
X108373810Y-101575714D01*
X108230952Y-101575714D01*
X108040476Y-101528095D01*
X107945238Y-101480476D01*
X107850000Y-101385238D01*
X107802381Y-101242380D01*
X107802381Y-101147142D01*
X107850000Y-101004285D01*
X107897619Y-100956666D01*
X107802381Y-100099523D02*
X107802381Y-100290000D01*
X107850000Y-100385238D01*
X107897619Y-100432857D01*
X108040476Y-100528095D01*
X108230952Y-100575714D01*
X108611905Y-100575714D01*
X108707143Y-100528095D01*
X108754762Y-100480476D01*
X108802381Y-100385238D01*
X108802381Y-100194761D01*
X108754762Y-100099523D01*
X108707143Y-100051904D01*
X108611905Y-100004285D01*
X108373810Y-100004285D01*
X108278571Y-100051904D01*
X108230952Y-100099523D01*
X108183333Y-100194761D01*
X108183333Y-100385238D01*
X108230952Y-100480476D01*
X108278571Y-100528095D01*
X108373810Y-100575714D01*
X105777143Y-100956666D02*
X105824762Y-101004285D01*
X105872381Y-101147142D01*
X105872381Y-101242380D01*
X105824762Y-101385238D01*
X105729524Y-101480476D01*
X105634286Y-101528095D01*
X105443810Y-101575714D01*
X105300952Y-101575714D01*
X105110476Y-101528095D01*
X105015238Y-101480476D01*
X104920000Y-101385238D01*
X104872381Y-101242380D01*
X104872381Y-101147142D01*
X104920000Y-101004285D01*
X104967619Y-100956666D01*
X104872381Y-100623333D02*
X104872381Y-99956666D01*
X105872381Y-100385238D01*
X96902381Y-117128095D02*
X95902381Y-117128095D01*
X95902381Y-116890000D01*
X95950000Y-116747142D01*
X96045238Y-116651904D01*
X96140476Y-116604285D01*
X96330952Y-116556666D01*
X96473810Y-116556666D01*
X96664286Y-116604285D01*
X96759524Y-116651904D01*
X96854762Y-116747142D01*
X96902381Y-116890000D01*
X96902381Y-117128095D01*
X96902381Y-115604285D02*
X96902381Y-116175714D01*
X96902381Y-115890000D02*
X95902381Y-115890000D01*
X96045238Y-115985238D01*
X96140476Y-116080476D01*
X96188095Y-116175714D01*
X120192381Y-121958095D02*
X119192381Y-121958095D01*
X119192381Y-121720000D01*
X119240000Y-121577142D01*
X119335238Y-121481904D01*
X119430476Y-121434285D01*
X119620952Y-121386666D01*
X119763810Y-121386666D01*
X119954286Y-121434285D01*
X120049524Y-121481904D01*
X120144762Y-121577142D01*
X120192381Y-121720000D01*
X120192381Y-121958095D01*
X119287619Y-121005714D02*
X119240000Y-120958095D01*
X119192381Y-120862857D01*
X119192381Y-120624761D01*
X119240000Y-120529523D01*
X119287619Y-120481904D01*
X119382857Y-120434285D01*
X119478095Y-120434285D01*
X119620952Y-120481904D01*
X120192381Y-121053333D01*
X120192381Y-120434285D01*
X164391905Y-87942381D02*
X164391905Y-86942381D01*
X164630000Y-86942381D01*
X164772858Y-86990000D01*
X164868096Y-87085238D01*
X164915715Y-87180476D01*
X164963334Y-87370952D01*
X164963334Y-87513810D01*
X164915715Y-87704286D01*
X164868096Y-87799524D01*
X164772858Y-87894762D01*
X164630000Y-87942381D01*
X164391905Y-87942381D01*
X165296667Y-86942381D02*
X165915715Y-86942381D01*
X165582381Y-87323333D01*
X165725239Y-87323333D01*
X165820477Y-87370952D01*
X165868096Y-87418571D01*
X165915715Y-87513810D01*
X165915715Y-87751905D01*
X165868096Y-87847143D01*
X165820477Y-87894762D01*
X165725239Y-87942381D01*
X165439524Y-87942381D01*
X165344286Y-87894762D01*
X165296667Y-87847143D01*
X164542381Y-122518095D02*
X163542381Y-122518095D01*
X163542381Y-122280000D01*
X163590000Y-122137142D01*
X163685238Y-122041904D01*
X163780476Y-121994285D01*
X163970952Y-121946666D01*
X164113810Y-121946666D01*
X164304286Y-121994285D01*
X164399524Y-122041904D01*
X164494762Y-122137142D01*
X164542381Y-122280000D01*
X164542381Y-122518095D01*
X163875714Y-121089523D02*
X164542381Y-121089523D01*
X163494762Y-121327619D02*
X164209048Y-121565714D01*
X164209048Y-120946666D01*
X108262381Y-122318095D02*
X107262381Y-122318095D01*
X107262381Y-122080000D01*
X107310000Y-121937142D01*
X107405238Y-121841904D01*
X107500476Y-121794285D01*
X107690952Y-121746666D01*
X107833810Y-121746666D01*
X108024286Y-121794285D01*
X108119524Y-121841904D01*
X108214762Y-121937142D01*
X108262381Y-122080000D01*
X108262381Y-122318095D01*
X107262381Y-120841904D02*
X107262381Y-121318095D01*
X107738571Y-121365714D01*
X107690952Y-121318095D01*
X107643333Y-121222857D01*
X107643333Y-120984761D01*
X107690952Y-120889523D01*
X107738571Y-120841904D01*
X107833810Y-120794285D01*
X108071905Y-120794285D01*
X108167143Y-120841904D01*
X108214762Y-120889523D01*
X108262381Y-120984761D01*
X108262381Y-121222857D01*
X108214762Y-121318095D01*
X108167143Y-121365714D01*
X176012381Y-122408095D02*
X175012381Y-122408095D01*
X175012381Y-122170000D01*
X175060000Y-122027142D01*
X175155238Y-121931904D01*
X175250476Y-121884285D01*
X175440952Y-121836666D01*
X175583810Y-121836666D01*
X175774286Y-121884285D01*
X175869524Y-121931904D01*
X175964762Y-122027142D01*
X176012381Y-122170000D01*
X176012381Y-122408095D01*
X175012381Y-120979523D02*
X175012381Y-121170000D01*
X175060000Y-121265238D01*
X175107619Y-121312857D01*
X175250476Y-121408095D01*
X175440952Y-121455714D01*
X175821905Y-121455714D01*
X175917143Y-121408095D01*
X175964762Y-121360476D01*
X176012381Y-121265238D01*
X176012381Y-121074761D01*
X175964762Y-120979523D01*
X175917143Y-120931904D01*
X175821905Y-120884285D01*
X175583810Y-120884285D01*
X175488571Y-120931904D01*
X175440952Y-120979523D01*
X175393333Y-121074761D01*
X175393333Y-121265238D01*
X175440952Y-121360476D01*
X175488571Y-121408095D01*
X175583810Y-121455714D01*
X143262381Y-121628095D02*
X142262381Y-121628095D01*
X142262381Y-121390000D01*
X142310000Y-121247142D01*
X142405238Y-121151904D01*
X142500476Y-121104285D01*
X142690952Y-121056666D01*
X142833810Y-121056666D01*
X143024286Y-121104285D01*
X143119524Y-121151904D01*
X143214762Y-121247142D01*
X143262381Y-121390000D01*
X143262381Y-121628095D01*
X142262381Y-120723333D02*
X142262381Y-120056666D01*
X143262381Y-120485238D01*
X132622381Y-122378095D02*
X131622381Y-122378095D01*
X131622381Y-122140000D01*
X131670000Y-121997142D01*
X131765238Y-121901904D01*
X131860476Y-121854285D01*
X132050952Y-121806666D01*
X132193810Y-121806666D01*
X132384286Y-121854285D01*
X132479524Y-121901904D01*
X132574762Y-121997142D01*
X132622381Y-122140000D01*
X132622381Y-122378095D01*
X132050952Y-121235238D02*
X132003333Y-121330476D01*
X131955714Y-121378095D01*
X131860476Y-121425714D01*
X131812857Y-121425714D01*
X131717619Y-121378095D01*
X131670000Y-121330476D01*
X131622381Y-121235238D01*
X131622381Y-121044761D01*
X131670000Y-120949523D01*
X131717619Y-120901904D01*
X131812857Y-120854285D01*
X131860476Y-120854285D01*
X131955714Y-120901904D01*
X132003333Y-120949523D01*
X132050952Y-121044761D01*
X132050952Y-121235238D01*
X132098571Y-121330476D01*
X132146190Y-121378095D01*
X132241429Y-121425714D01*
X132431905Y-121425714D01*
X132527143Y-121378095D01*
X132574762Y-121330476D01*
X132622381Y-121235238D01*
X132622381Y-121044761D01*
X132574762Y-120949523D01*
X132527143Y-120901904D01*
X132431905Y-120854285D01*
X132241429Y-120854285D01*
X132146190Y-120901904D01*
X132098571Y-120949523D01*
X132050952Y-121044761D01*
X153642381Y-121158095D02*
X152642381Y-121158095D01*
X152642381Y-120920000D01*
X152690000Y-120777142D01*
X152785238Y-120681904D01*
X152880476Y-120634285D01*
X153070952Y-120586666D01*
X153213810Y-120586666D01*
X153404286Y-120634285D01*
X153499524Y-120681904D01*
X153594762Y-120777142D01*
X153642381Y-120920000D01*
X153642381Y-121158095D01*
X153642381Y-120110476D02*
X153642381Y-119920000D01*
X153594762Y-119824761D01*
X153547143Y-119777142D01*
X153404286Y-119681904D01*
X153213810Y-119634285D01*
X152832857Y-119634285D01*
X152737619Y-119681904D01*
X152690000Y-119729523D01*
X152642381Y-119824761D01*
X152642381Y-120015238D01*
X152690000Y-120110476D01*
X152737619Y-120158095D01*
X152832857Y-120205714D01*
X153070952Y-120205714D01*
X153166190Y-120158095D01*
X153213810Y-120110476D01*
X153261429Y-120015238D01*
X153261429Y-119824761D01*
X153213810Y-119729523D01*
X153166190Y-119681904D01*
X153070952Y-119634285D01*
X77466667Y-127342381D02*
X77466667Y-128056667D01*
X77419047Y-128199524D01*
X77323809Y-128294762D01*
X77180952Y-128342381D01*
X77085714Y-128342381D01*
X78466667Y-128342381D02*
X77895238Y-128342381D01*
X78180952Y-128342381D02*
X78180952Y-127342381D01*
X78085714Y-127485238D01*
X77990476Y-127580476D01*
X77895238Y-127628095D01*
X135782667Y-134090381D02*
X135782667Y-134804667D01*
X135735047Y-134947524D01*
X135639809Y-135042762D01*
X135496952Y-135090381D01*
X135401714Y-135090381D01*
X136211238Y-134185619D02*
X136258857Y-134138000D01*
X136354095Y-134090381D01*
X136592191Y-134090381D01*
X136687429Y-134138000D01*
X136735048Y-134185619D01*
X136782667Y-134280857D01*
X136782667Y-134376095D01*
X136735048Y-134518952D01*
X136163619Y-135090381D01*
X136782667Y-135090381D01*
X118764667Y-134090381D02*
X118764667Y-134804667D01*
X118717047Y-134947524D01*
X118621809Y-135042762D01*
X118478952Y-135090381D01*
X118383714Y-135090381D01*
X119145619Y-134090381D02*
X119764667Y-134090381D01*
X119431333Y-134471333D01*
X119574191Y-134471333D01*
X119669429Y-134518952D01*
X119717048Y-134566571D01*
X119764667Y-134661810D01*
X119764667Y-134899905D01*
X119717048Y-134995143D01*
X119669429Y-135042762D01*
X119574191Y-135090381D01*
X119288476Y-135090381D01*
X119193238Y-135042762D01*
X119145619Y-134995143D01*
X153308667Y-134090381D02*
X153308667Y-134804667D01*
X153261047Y-134947524D01*
X153165809Y-135042762D01*
X153022952Y-135090381D01*
X152927714Y-135090381D01*
X154213429Y-134423714D02*
X154213429Y-135090381D01*
X153975333Y-134042762D02*
X153737238Y-134757048D01*
X154356286Y-134757048D01*
X162198667Y-134090381D02*
X162198667Y-134804667D01*
X162151047Y-134947524D01*
X162055809Y-135042762D01*
X161912952Y-135090381D01*
X161817714Y-135090381D01*
X163151048Y-134090381D02*
X162674857Y-134090381D01*
X162627238Y-134566571D01*
X162674857Y-134518952D01*
X162770095Y-134471333D01*
X163008191Y-134471333D01*
X163103429Y-134518952D01*
X163151048Y-134566571D01*
X163198667Y-134661810D01*
X163198667Y-134899905D01*
X163151048Y-134995143D01*
X163103429Y-135042762D01*
X163008191Y-135090381D01*
X162770095Y-135090381D01*
X162674857Y-135042762D01*
X162627238Y-134995143D01*
X144672667Y-134090381D02*
X144672667Y-134804667D01*
X144625047Y-134947524D01*
X144529809Y-135042762D01*
X144386952Y-135090381D01*
X144291714Y-135090381D01*
X145577429Y-134090381D02*
X145386952Y-134090381D01*
X145291714Y-134138000D01*
X145244095Y-134185619D01*
X145148857Y-134328476D01*
X145101238Y-134518952D01*
X145101238Y-134899905D01*
X145148857Y-134995143D01*
X145196476Y-135042762D01*
X145291714Y-135090381D01*
X145482191Y-135090381D01*
X145577429Y-135042762D01*
X145625048Y-134995143D01*
X145672667Y-134899905D01*
X145672667Y-134661810D01*
X145625048Y-134566571D01*
X145577429Y-134518952D01*
X145482191Y-134471333D01*
X145291714Y-134471333D01*
X145196476Y-134518952D01*
X145148857Y-134566571D01*
X145101238Y-134661810D01*
X127146667Y-134090381D02*
X127146667Y-134804667D01*
X127099047Y-134947524D01*
X127003809Y-135042762D01*
X126860952Y-135090381D01*
X126765714Y-135090381D01*
X127527619Y-134090381D02*
X128194286Y-134090381D01*
X127765714Y-135090381D01*
X110128667Y-134090381D02*
X110128667Y-134804667D01*
X110081047Y-134947524D01*
X109985809Y-135042762D01*
X109842952Y-135090381D01*
X109747714Y-135090381D01*
X110747714Y-134518952D02*
X110652476Y-134471333D01*
X110604857Y-134423714D01*
X110557238Y-134328476D01*
X110557238Y-134280857D01*
X110604857Y-134185619D01*
X110652476Y-134138000D01*
X110747714Y-134090381D01*
X110938191Y-134090381D01*
X111033429Y-134138000D01*
X111081048Y-134185619D01*
X111128667Y-134280857D01*
X111128667Y-134328476D01*
X111081048Y-134423714D01*
X111033429Y-134471333D01*
X110938191Y-134518952D01*
X110747714Y-134518952D01*
X110652476Y-134566571D01*
X110604857Y-134614190D01*
X110557238Y-134709429D01*
X110557238Y-134899905D01*
X110604857Y-134995143D01*
X110652476Y-135042762D01*
X110747714Y-135090381D01*
X110938191Y-135090381D01*
X111033429Y-135042762D01*
X111081048Y-134995143D01*
X111128667Y-134899905D01*
X111128667Y-134709429D01*
X111081048Y-134614190D01*
X111033429Y-134566571D01*
X110938191Y-134518952D01*
X158076667Y-69592381D02*
X158076667Y-70306667D01*
X158029047Y-70449524D01*
X157933809Y-70544762D01*
X157790952Y-70592381D01*
X157695714Y-70592381D01*
X158600476Y-70592381D02*
X158790952Y-70592381D01*
X158886191Y-70544762D01*
X158933810Y-70497143D01*
X159029048Y-70354286D01*
X159076667Y-70163810D01*
X159076667Y-69782857D01*
X159029048Y-69687619D01*
X158981429Y-69640000D01*
X158886191Y-69592381D01*
X158695714Y-69592381D01*
X158600476Y-69640000D01*
X158552857Y-69687619D01*
X158505238Y-69782857D01*
X158505238Y-70020952D01*
X158552857Y-70116190D01*
X158600476Y-70163810D01*
X158695714Y-70211429D01*
X158886191Y-70211429D01*
X158981429Y-70163810D01*
X159029048Y-70116190D01*
X159076667Y-70020952D01*
X122250477Y-69172381D02*
X122250477Y-69886667D01*
X122202857Y-70029524D01*
X122107619Y-70124762D01*
X121964762Y-70172381D01*
X121869524Y-70172381D01*
X123250477Y-70172381D02*
X122679048Y-70172381D01*
X122964762Y-70172381D02*
X122964762Y-69172381D01*
X122869524Y-69315238D01*
X122774286Y-69410476D01*
X122679048Y-69458095D01*
X123869524Y-69172381D02*
X123964763Y-69172381D01*
X124060001Y-69220000D01*
X124107620Y-69267619D01*
X124155239Y-69362857D01*
X124202858Y-69553333D01*
X124202858Y-69791429D01*
X124155239Y-69981905D01*
X124107620Y-70077143D01*
X124060001Y-70124762D01*
X123964763Y-70172381D01*
X123869524Y-70172381D01*
X123774286Y-70124762D01*
X123726667Y-70077143D01*
X123679048Y-69981905D01*
X123631429Y-69791429D01*
X123631429Y-69553333D01*
X123679048Y-69362857D01*
X123726667Y-69267619D01*
X123774286Y-69220000D01*
X123869524Y-69172381D01*
X92380477Y-69702381D02*
X92380477Y-70416667D01*
X92332857Y-70559524D01*
X92237619Y-70654762D01*
X92094762Y-70702381D01*
X91999524Y-70702381D01*
X93380477Y-70702381D02*
X92809048Y-70702381D01*
X93094762Y-70702381D02*
X93094762Y-69702381D01*
X92999524Y-69845238D01*
X92904286Y-69940476D01*
X92809048Y-69988095D01*
X94332858Y-70702381D02*
X93761429Y-70702381D01*
X94047143Y-70702381D02*
X94047143Y-69702381D01*
X93951905Y-69845238D01*
X93856667Y-69940476D01*
X93761429Y-69988095D01*
X85050477Y-69952381D02*
X85050477Y-70666667D01*
X85002857Y-70809524D01*
X84907619Y-70904762D01*
X84764762Y-70952381D01*
X84669524Y-70952381D01*
X86050477Y-70952381D02*
X85479048Y-70952381D01*
X85764762Y-70952381D02*
X85764762Y-69952381D01*
X85669524Y-70095238D01*
X85574286Y-70190476D01*
X85479048Y-70238095D01*
X86431429Y-70047619D02*
X86479048Y-70000000D01*
X86574286Y-69952381D01*
X86812382Y-69952381D01*
X86907620Y-70000000D01*
X86955239Y-70047619D01*
X87002858Y-70142857D01*
X87002858Y-70238095D01*
X86955239Y-70380952D01*
X86383810Y-70952381D01*
X87002858Y-70952381D01*
X76950477Y-69822381D02*
X76950477Y-70536667D01*
X76902857Y-70679524D01*
X76807619Y-70774762D01*
X76664762Y-70822381D01*
X76569524Y-70822381D01*
X77950477Y-70822381D02*
X77379048Y-70822381D01*
X77664762Y-70822381D02*
X77664762Y-69822381D01*
X77569524Y-69965238D01*
X77474286Y-70060476D01*
X77379048Y-70108095D01*
X78283810Y-69822381D02*
X78902858Y-69822381D01*
X78569524Y-70203333D01*
X78712382Y-70203333D01*
X78807620Y-70250952D01*
X78855239Y-70298571D01*
X78902858Y-70393810D01*
X78902858Y-70631905D01*
X78855239Y-70727143D01*
X78807620Y-70774762D01*
X78712382Y-70822381D01*
X78426667Y-70822381D01*
X78331429Y-70774762D01*
X78283810Y-70727143D01*
X102990477Y-69502381D02*
X102990477Y-70216667D01*
X102942857Y-70359524D01*
X102847619Y-70454762D01*
X102704762Y-70502381D01*
X102609524Y-70502381D01*
X103990477Y-70502381D02*
X103419048Y-70502381D01*
X103704762Y-70502381D02*
X103704762Y-69502381D01*
X103609524Y-69645238D01*
X103514286Y-69740476D01*
X103419048Y-69788095D01*
X104847620Y-69835714D02*
X104847620Y-70502381D01*
X104609524Y-69454762D02*
X104371429Y-70169048D01*
X104990477Y-70169048D01*
X91113334Y-100282381D02*
X90637143Y-100282381D01*
X90637143Y-99282381D01*
X91970477Y-100282381D02*
X91399048Y-100282381D01*
X91684762Y-100282381D02*
X91684762Y-99282381D01*
X91589524Y-99425238D01*
X91494286Y-99520476D01*
X91399048Y-99568095D01*
X113262381Y-116326666D02*
X112786190Y-116660000D01*
X113262381Y-116898095D02*
X112262381Y-116898095D01*
X112262381Y-116517142D01*
X112310000Y-116421904D01*
X112357619Y-116374285D01*
X112452857Y-116326666D01*
X112595714Y-116326666D01*
X112690952Y-116374285D01*
X112738571Y-116421904D01*
X112786190Y-116517142D01*
X112786190Y-116898095D01*
X113262381Y-115374285D02*
X113262381Y-115945714D01*
X113262381Y-115660000D02*
X112262381Y-115660000D01*
X112405238Y-115755238D01*
X112500476Y-115850476D01*
X112548095Y-115945714D01*
X163052381Y-76786666D02*
X162576190Y-77120000D01*
X163052381Y-77358095D02*
X162052381Y-77358095D01*
X162052381Y-76977142D01*
X162100000Y-76881904D01*
X162147619Y-76834285D01*
X162242857Y-76786666D01*
X162385714Y-76786666D01*
X162480952Y-76834285D01*
X162528571Y-76881904D01*
X162576190Y-76977142D01*
X162576190Y-77358095D01*
X162147619Y-76405714D02*
X162100000Y-76358095D01*
X162052381Y-76262857D01*
X162052381Y-76024761D01*
X162100000Y-75929523D01*
X162147619Y-75881904D01*
X162242857Y-75834285D01*
X162338095Y-75834285D01*
X162480952Y-75881904D01*
X163052381Y-76453333D01*
X163052381Y-75834285D01*
X160522381Y-76786666D02*
X160046190Y-77120000D01*
X160522381Y-77358095D02*
X159522381Y-77358095D01*
X159522381Y-76977142D01*
X159570000Y-76881904D01*
X159617619Y-76834285D01*
X159712857Y-76786666D01*
X159855714Y-76786666D01*
X159950952Y-76834285D01*
X159998571Y-76881904D01*
X160046190Y-76977142D01*
X160046190Y-77358095D01*
X159522381Y-76453333D02*
X159522381Y-75834285D01*
X159903333Y-76167619D01*
X159903333Y-76024761D01*
X159950952Y-75929523D01*
X159998571Y-75881904D01*
X160093810Y-75834285D01*
X160331905Y-75834285D01*
X160427143Y-75881904D01*
X160474762Y-75929523D01*
X160522381Y-76024761D01*
X160522381Y-76310476D01*
X160474762Y-76405714D01*
X160427143Y-76453333D01*
X158122381Y-76786666D02*
X157646190Y-77120000D01*
X158122381Y-77358095D02*
X157122381Y-77358095D01*
X157122381Y-76977142D01*
X157170000Y-76881904D01*
X157217619Y-76834285D01*
X157312857Y-76786666D01*
X157455714Y-76786666D01*
X157550952Y-76834285D01*
X157598571Y-76881904D01*
X157646190Y-76977142D01*
X157646190Y-77358095D01*
X157455714Y-75929523D02*
X158122381Y-75929523D01*
X157074762Y-76167619D02*
X157789048Y-76405714D01*
X157789048Y-75786666D01*
X150272381Y-76176666D02*
X149796190Y-76510000D01*
X150272381Y-76748095D02*
X149272381Y-76748095D01*
X149272381Y-76367142D01*
X149320000Y-76271904D01*
X149367619Y-76224285D01*
X149462857Y-76176666D01*
X149605714Y-76176666D01*
X149700952Y-76224285D01*
X149748571Y-76271904D01*
X149796190Y-76367142D01*
X149796190Y-76748095D01*
X149272381Y-75271904D02*
X149272381Y-75748095D01*
X149748571Y-75795714D01*
X149700952Y-75748095D01*
X149653333Y-75652857D01*
X149653333Y-75414761D01*
X149700952Y-75319523D01*
X149748571Y-75271904D01*
X149843810Y-75224285D01*
X150081905Y-75224285D01*
X150177143Y-75271904D01*
X150224762Y-75319523D01*
X150272381Y-75414761D01*
X150272381Y-75652857D01*
X150224762Y-75748095D01*
X150177143Y-75795714D01*
X147742381Y-76176666D02*
X147266190Y-76510000D01*
X147742381Y-76748095D02*
X146742381Y-76748095D01*
X146742381Y-76367142D01*
X146790000Y-76271904D01*
X146837619Y-76224285D01*
X146932857Y-76176666D01*
X147075714Y-76176666D01*
X147170952Y-76224285D01*
X147218571Y-76271904D01*
X147266190Y-76367142D01*
X147266190Y-76748095D01*
X146742381Y-75319523D02*
X146742381Y-75510000D01*
X146790000Y-75605238D01*
X146837619Y-75652857D01*
X146980476Y-75748095D01*
X147170952Y-75795714D01*
X147551905Y-75795714D01*
X147647143Y-75748095D01*
X147694762Y-75700476D01*
X147742381Y-75605238D01*
X147742381Y-75414761D01*
X147694762Y-75319523D01*
X147647143Y-75271904D01*
X147551905Y-75224285D01*
X147313810Y-75224285D01*
X147218571Y-75271904D01*
X147170952Y-75319523D01*
X147123333Y-75414761D01*
X147123333Y-75605238D01*
X147170952Y-75700476D01*
X147218571Y-75748095D01*
X147313810Y-75795714D01*
X145242381Y-76206666D02*
X144766190Y-76540000D01*
X145242381Y-76778095D02*
X144242381Y-76778095D01*
X144242381Y-76397142D01*
X144290000Y-76301904D01*
X144337619Y-76254285D01*
X144432857Y-76206666D01*
X144575714Y-76206666D01*
X144670952Y-76254285D01*
X144718571Y-76301904D01*
X144766190Y-76397142D01*
X144766190Y-76778095D01*
X144242381Y-75873333D02*
X144242381Y-75206666D01*
X145242381Y-75635238D01*
X142462381Y-76286666D02*
X141986190Y-76620000D01*
X142462381Y-76858095D02*
X141462381Y-76858095D01*
X141462381Y-76477142D01*
X141510000Y-76381904D01*
X141557619Y-76334285D01*
X141652857Y-76286666D01*
X141795714Y-76286666D01*
X141890952Y-76334285D01*
X141938571Y-76381904D01*
X141986190Y-76477142D01*
X141986190Y-76858095D01*
X141890952Y-75715238D02*
X141843333Y-75810476D01*
X141795714Y-75858095D01*
X141700476Y-75905714D01*
X141652857Y-75905714D01*
X141557619Y-75858095D01*
X141510000Y-75810476D01*
X141462381Y-75715238D01*
X141462381Y-75524761D01*
X141510000Y-75429523D01*
X141557619Y-75381904D01*
X141652857Y-75334285D01*
X141700476Y-75334285D01*
X141795714Y-75381904D01*
X141843333Y-75429523D01*
X141890952Y-75524761D01*
X141890952Y-75715238D01*
X141938571Y-75810476D01*
X141986190Y-75858095D01*
X142081429Y-75905714D01*
X142271905Y-75905714D01*
X142367143Y-75858095D01*
X142414762Y-75810476D01*
X142462381Y-75715238D01*
X142462381Y-75524761D01*
X142414762Y-75429523D01*
X142367143Y-75381904D01*
X142271905Y-75334285D01*
X142081429Y-75334285D01*
X141986190Y-75381904D01*
X141938571Y-75429523D01*
X141890952Y-75524761D01*
X115512381Y-116546666D02*
X115036190Y-116880000D01*
X115512381Y-117118095D02*
X114512381Y-117118095D01*
X114512381Y-116737142D01*
X114560000Y-116641904D01*
X114607619Y-116594285D01*
X114702857Y-116546666D01*
X114845714Y-116546666D01*
X114940952Y-116594285D01*
X114988571Y-116641904D01*
X115036190Y-116737142D01*
X115036190Y-117118095D01*
X115512381Y-116070476D02*
X115512381Y-115880000D01*
X115464762Y-115784761D01*
X115417143Y-115737142D01*
X115274286Y-115641904D01*
X115083810Y-115594285D01*
X114702857Y-115594285D01*
X114607619Y-115641904D01*
X114560000Y-115689523D01*
X114512381Y-115784761D01*
X114512381Y-115975238D01*
X114560000Y-116070476D01*
X114607619Y-116118095D01*
X114702857Y-116165714D01*
X114940952Y-116165714D01*
X115036190Y-116118095D01*
X115083810Y-116070476D01*
X115131429Y-115975238D01*
X115131429Y-115784761D01*
X115083810Y-115689523D01*
X115036190Y-115641904D01*
X114940952Y-115594285D01*
X132587143Y-84572381D02*
X132253809Y-84096190D01*
X132015714Y-84572381D02*
X132015714Y-83572381D01*
X132396667Y-83572381D01*
X132491905Y-83620000D01*
X132539524Y-83667619D01*
X132587143Y-83762857D01*
X132587143Y-83905714D01*
X132539524Y-84000952D01*
X132491905Y-84048571D01*
X132396667Y-84096190D01*
X132015714Y-84096190D01*
X133539524Y-84572381D02*
X132968095Y-84572381D01*
X133253809Y-84572381D02*
X133253809Y-83572381D01*
X133158571Y-83715238D01*
X133063333Y-83810476D01*
X132968095Y-83858095D01*
X134158571Y-83572381D02*
X134253810Y-83572381D01*
X134349048Y-83620000D01*
X134396667Y-83667619D01*
X134444286Y-83762857D01*
X134491905Y-83953333D01*
X134491905Y-84191429D01*
X134444286Y-84381905D01*
X134396667Y-84477143D01*
X134349048Y-84524762D01*
X134253810Y-84572381D01*
X134158571Y-84572381D01*
X134063333Y-84524762D01*
X134015714Y-84477143D01*
X133968095Y-84381905D01*
X133920476Y-84191429D01*
X133920476Y-83953333D01*
X133968095Y-83762857D01*
X134015714Y-83667619D01*
X134063333Y-83620000D01*
X134158571Y-83572381D01*
X159822381Y-116642857D02*
X159346190Y-116976191D01*
X159822381Y-117214286D02*
X158822381Y-117214286D01*
X158822381Y-116833333D01*
X158870000Y-116738095D01*
X158917619Y-116690476D01*
X159012857Y-116642857D01*
X159155714Y-116642857D01*
X159250952Y-116690476D01*
X159298571Y-116738095D01*
X159346190Y-116833333D01*
X159346190Y-117214286D01*
X159822381Y-115690476D02*
X159822381Y-116261905D01*
X159822381Y-115976191D02*
X158822381Y-115976191D01*
X158965238Y-116071429D01*
X159060476Y-116166667D01*
X159108095Y-116261905D01*
X159822381Y-114738095D02*
X159822381Y-115309524D01*
X159822381Y-115023810D02*
X158822381Y-115023810D01*
X158965238Y-115119048D01*
X159060476Y-115214286D01*
X159108095Y-115309524D01*
X157482381Y-116732857D02*
X157006190Y-117066191D01*
X157482381Y-117304286D02*
X156482381Y-117304286D01*
X156482381Y-116923333D01*
X156530000Y-116828095D01*
X156577619Y-116780476D01*
X156672857Y-116732857D01*
X156815714Y-116732857D01*
X156910952Y-116780476D01*
X156958571Y-116828095D01*
X157006190Y-116923333D01*
X157006190Y-117304286D01*
X157482381Y-115780476D02*
X157482381Y-116351905D01*
X157482381Y-116066191D02*
X156482381Y-116066191D01*
X156625238Y-116161429D01*
X156720476Y-116256667D01*
X156768095Y-116351905D01*
X156577619Y-115399524D02*
X156530000Y-115351905D01*
X156482381Y-115256667D01*
X156482381Y-115018571D01*
X156530000Y-114923333D01*
X156577619Y-114875714D01*
X156672857Y-114828095D01*
X156768095Y-114828095D01*
X156910952Y-114875714D01*
X157482381Y-115447143D01*
X157482381Y-114828095D01*
X103562381Y-124392857D02*
X103086190Y-124726191D01*
X103562381Y-124964286D02*
X102562381Y-124964286D01*
X102562381Y-124583333D01*
X102610000Y-124488095D01*
X102657619Y-124440476D01*
X102752857Y-124392857D01*
X102895714Y-124392857D01*
X102990952Y-124440476D01*
X103038571Y-124488095D01*
X103086190Y-124583333D01*
X103086190Y-124964286D01*
X103562381Y-123440476D02*
X103562381Y-124011905D01*
X103562381Y-123726191D02*
X102562381Y-123726191D01*
X102705238Y-123821429D01*
X102800476Y-123916667D01*
X102848095Y-124011905D01*
X102562381Y-123107143D02*
X102562381Y-122488095D01*
X102943333Y-122821429D01*
X102943333Y-122678571D01*
X102990952Y-122583333D01*
X103038571Y-122535714D01*
X103133810Y-122488095D01*
X103371905Y-122488095D01*
X103467143Y-122535714D01*
X103514762Y-122583333D01*
X103562381Y-122678571D01*
X103562381Y-122964286D01*
X103514762Y-123059524D01*
X103467143Y-123107143D01*
X169152381Y-116282857D02*
X168676190Y-116616191D01*
X169152381Y-116854286D02*
X168152381Y-116854286D01*
X168152381Y-116473333D01*
X168200000Y-116378095D01*
X168247619Y-116330476D01*
X168342857Y-116282857D01*
X168485714Y-116282857D01*
X168580952Y-116330476D01*
X168628571Y-116378095D01*
X168676190Y-116473333D01*
X168676190Y-116854286D01*
X169152381Y-115330476D02*
X169152381Y-115901905D01*
X169152381Y-115616191D02*
X168152381Y-115616191D01*
X168295238Y-115711429D01*
X168390476Y-115806667D01*
X168438095Y-115901905D01*
X168485714Y-114473333D02*
X169152381Y-114473333D01*
X168104762Y-114711429D02*
X168819048Y-114949524D01*
X168819048Y-114330476D01*
X102622381Y-79142857D02*
X102146190Y-79476191D01*
X102622381Y-79714286D02*
X101622381Y-79714286D01*
X101622381Y-79333333D01*
X101670000Y-79238095D01*
X101717619Y-79190476D01*
X101812857Y-79142857D01*
X101955714Y-79142857D01*
X102050952Y-79190476D01*
X102098571Y-79238095D01*
X102146190Y-79333333D01*
X102146190Y-79714286D01*
X102622381Y-78190476D02*
X102622381Y-78761905D01*
X102622381Y-78476191D02*
X101622381Y-78476191D01*
X101765238Y-78571429D01*
X101860476Y-78666667D01*
X101908095Y-78761905D01*
X101622381Y-77285714D02*
X101622381Y-77761905D01*
X102098571Y-77809524D01*
X102050952Y-77761905D01*
X102003333Y-77666667D01*
X102003333Y-77428571D01*
X102050952Y-77333333D01*
X102098571Y-77285714D01*
X102193810Y-77238095D01*
X102431905Y-77238095D01*
X102527143Y-77285714D01*
X102574762Y-77333333D01*
X102622381Y-77428571D01*
X102622381Y-77666667D01*
X102574762Y-77761905D01*
X102527143Y-77809524D01*
X101672381Y-124512857D02*
X101196190Y-124846191D01*
X101672381Y-125084286D02*
X100672381Y-125084286D01*
X100672381Y-124703333D01*
X100720000Y-124608095D01*
X100767619Y-124560476D01*
X100862857Y-124512857D01*
X101005714Y-124512857D01*
X101100952Y-124560476D01*
X101148571Y-124608095D01*
X101196190Y-124703333D01*
X101196190Y-125084286D01*
X101672381Y-123560476D02*
X101672381Y-124131905D01*
X101672381Y-123846191D02*
X100672381Y-123846191D01*
X100815238Y-123941429D01*
X100910476Y-124036667D01*
X100958095Y-124131905D01*
X101100952Y-122989048D02*
X101053333Y-123084286D01*
X101005714Y-123131905D01*
X100910476Y-123179524D01*
X100862857Y-123179524D01*
X100767619Y-123131905D01*
X100720000Y-123084286D01*
X100672381Y-122989048D01*
X100672381Y-122798571D01*
X100720000Y-122703333D01*
X100767619Y-122655714D01*
X100862857Y-122608095D01*
X100910476Y-122608095D01*
X101005714Y-122655714D01*
X101053333Y-122703333D01*
X101100952Y-122798571D01*
X101100952Y-122989048D01*
X101148571Y-123084286D01*
X101196190Y-123131905D01*
X101291429Y-123179524D01*
X101481905Y-123179524D01*
X101577143Y-123131905D01*
X101624762Y-123084286D01*
X101672381Y-122989048D01*
X101672381Y-122798571D01*
X101624762Y-122703333D01*
X101577143Y-122655714D01*
X101481905Y-122608095D01*
X101291429Y-122608095D01*
X101196190Y-122655714D01*
X101148571Y-122703333D01*
X101100952Y-122798571D01*
X171402381Y-116222857D02*
X170926190Y-116556191D01*
X171402381Y-116794286D02*
X170402381Y-116794286D01*
X170402381Y-116413333D01*
X170450000Y-116318095D01*
X170497619Y-116270476D01*
X170592857Y-116222857D01*
X170735714Y-116222857D01*
X170830952Y-116270476D01*
X170878571Y-116318095D01*
X170926190Y-116413333D01*
X170926190Y-116794286D01*
X171402381Y-115270476D02*
X171402381Y-115841905D01*
X171402381Y-115556191D02*
X170402381Y-115556191D01*
X170545238Y-115651429D01*
X170640476Y-115746667D01*
X170688095Y-115841905D01*
X171402381Y-114794286D02*
X171402381Y-114603810D01*
X171354762Y-114508571D01*
X171307143Y-114460952D01*
X171164286Y-114365714D01*
X170973810Y-114318095D01*
X170592857Y-114318095D01*
X170497619Y-114365714D01*
X170450000Y-114413333D01*
X170402381Y-114508571D01*
X170402381Y-114699048D01*
X170450000Y-114794286D01*
X170497619Y-114841905D01*
X170592857Y-114889524D01*
X170830952Y-114889524D01*
X170926190Y-114841905D01*
X170973810Y-114794286D01*
X171021429Y-114699048D01*
X171021429Y-114508571D01*
X170973810Y-114413333D01*
X170926190Y-114365714D01*
X170830952Y-114318095D01*
X174162381Y-100242857D02*
X173686190Y-100576191D01*
X174162381Y-100814286D02*
X173162381Y-100814286D01*
X173162381Y-100433333D01*
X173210000Y-100338095D01*
X173257619Y-100290476D01*
X173352857Y-100242857D01*
X173495714Y-100242857D01*
X173590952Y-100290476D01*
X173638571Y-100338095D01*
X173686190Y-100433333D01*
X173686190Y-100814286D01*
X173257619Y-99861905D02*
X173210000Y-99814286D01*
X173162381Y-99719048D01*
X173162381Y-99480952D01*
X173210000Y-99385714D01*
X173257619Y-99338095D01*
X173352857Y-99290476D01*
X173448095Y-99290476D01*
X173590952Y-99338095D01*
X174162381Y-99909524D01*
X174162381Y-99290476D01*
X173162381Y-98671429D02*
X173162381Y-98576190D01*
X173210000Y-98480952D01*
X173257619Y-98433333D01*
X173352857Y-98385714D01*
X173543333Y-98338095D01*
X173781429Y-98338095D01*
X173971905Y-98385714D01*
X174067143Y-98433333D01*
X174114762Y-98480952D01*
X174162381Y-98576190D01*
X174162381Y-98671429D01*
X174114762Y-98766667D01*
X174067143Y-98814286D01*
X173971905Y-98861905D01*
X173781429Y-98909524D01*
X173543333Y-98909524D01*
X173352857Y-98861905D01*
X173257619Y-98814286D01*
X173210000Y-98766667D01*
X173162381Y-98671429D01*
X176432381Y-100262857D02*
X175956190Y-100596191D01*
X176432381Y-100834286D02*
X175432381Y-100834286D01*
X175432381Y-100453333D01*
X175480000Y-100358095D01*
X175527619Y-100310476D01*
X175622857Y-100262857D01*
X175765714Y-100262857D01*
X175860952Y-100310476D01*
X175908571Y-100358095D01*
X175956190Y-100453333D01*
X175956190Y-100834286D01*
X175527619Y-99881905D02*
X175480000Y-99834286D01*
X175432381Y-99739048D01*
X175432381Y-99500952D01*
X175480000Y-99405714D01*
X175527619Y-99358095D01*
X175622857Y-99310476D01*
X175718095Y-99310476D01*
X175860952Y-99358095D01*
X176432381Y-99929524D01*
X176432381Y-99310476D01*
X176432381Y-98358095D02*
X176432381Y-98929524D01*
X176432381Y-98643810D02*
X175432381Y-98643810D01*
X175575238Y-98739048D01*
X175670476Y-98834286D01*
X175718095Y-98929524D01*
X138652381Y-116832857D02*
X138176190Y-117166191D01*
X138652381Y-117404286D02*
X137652381Y-117404286D01*
X137652381Y-117023333D01*
X137700000Y-116928095D01*
X137747619Y-116880476D01*
X137842857Y-116832857D01*
X137985714Y-116832857D01*
X138080952Y-116880476D01*
X138128571Y-116928095D01*
X138176190Y-117023333D01*
X138176190Y-117404286D01*
X137747619Y-116451905D02*
X137700000Y-116404286D01*
X137652381Y-116309048D01*
X137652381Y-116070952D01*
X137700000Y-115975714D01*
X137747619Y-115928095D01*
X137842857Y-115880476D01*
X137938095Y-115880476D01*
X138080952Y-115928095D01*
X138652381Y-116499524D01*
X138652381Y-115880476D01*
X137652381Y-115547143D02*
X137652381Y-114928095D01*
X138033333Y-115261429D01*
X138033333Y-115118571D01*
X138080952Y-115023333D01*
X138128571Y-114975714D01*
X138223810Y-114928095D01*
X138461905Y-114928095D01*
X138557143Y-114975714D01*
X138604762Y-115023333D01*
X138652381Y-115118571D01*
X138652381Y-115404286D01*
X138604762Y-115499524D01*
X138557143Y-115547143D01*
X136652381Y-116852857D02*
X136176190Y-117186191D01*
X136652381Y-117424286D02*
X135652381Y-117424286D01*
X135652381Y-117043333D01*
X135700000Y-116948095D01*
X135747619Y-116900476D01*
X135842857Y-116852857D01*
X135985714Y-116852857D01*
X136080952Y-116900476D01*
X136128571Y-116948095D01*
X136176190Y-117043333D01*
X136176190Y-117424286D01*
X135747619Y-116471905D02*
X135700000Y-116424286D01*
X135652381Y-116329048D01*
X135652381Y-116090952D01*
X135700000Y-115995714D01*
X135747619Y-115948095D01*
X135842857Y-115900476D01*
X135938095Y-115900476D01*
X136080952Y-115948095D01*
X136652381Y-116519524D01*
X136652381Y-115900476D01*
X135985714Y-115043333D02*
X136652381Y-115043333D01*
X135604762Y-115281429D02*
X136319048Y-115519524D01*
X136319048Y-114900476D01*
X125632381Y-116862857D02*
X125156190Y-117196191D01*
X125632381Y-117434286D02*
X124632381Y-117434286D01*
X124632381Y-117053333D01*
X124680000Y-116958095D01*
X124727619Y-116910476D01*
X124822857Y-116862857D01*
X124965714Y-116862857D01*
X125060952Y-116910476D01*
X125108571Y-116958095D01*
X125156190Y-117053333D01*
X125156190Y-117434286D01*
X124727619Y-116481905D02*
X124680000Y-116434286D01*
X124632381Y-116339048D01*
X124632381Y-116100952D01*
X124680000Y-116005714D01*
X124727619Y-115958095D01*
X124822857Y-115910476D01*
X124918095Y-115910476D01*
X125060952Y-115958095D01*
X125632381Y-116529524D01*
X125632381Y-115910476D01*
X124632381Y-115005714D02*
X124632381Y-115481905D01*
X125108571Y-115529524D01*
X125060952Y-115481905D01*
X125013333Y-115386667D01*
X125013333Y-115148571D01*
X125060952Y-115053333D01*
X125108571Y-115005714D01*
X125203810Y-114958095D01*
X125441905Y-114958095D01*
X125537143Y-115005714D01*
X125584762Y-115053333D01*
X125632381Y-115148571D01*
X125632381Y-115386667D01*
X125584762Y-115481905D01*
X125537143Y-115529524D01*
X127532381Y-116802857D02*
X127056190Y-117136191D01*
X127532381Y-117374286D02*
X126532381Y-117374286D01*
X126532381Y-116993333D01*
X126580000Y-116898095D01*
X126627619Y-116850476D01*
X126722857Y-116802857D01*
X126865714Y-116802857D01*
X126960952Y-116850476D01*
X127008571Y-116898095D01*
X127056190Y-116993333D01*
X127056190Y-117374286D01*
X126627619Y-116421905D02*
X126580000Y-116374286D01*
X126532381Y-116279048D01*
X126532381Y-116040952D01*
X126580000Y-115945714D01*
X126627619Y-115898095D01*
X126722857Y-115850476D01*
X126818095Y-115850476D01*
X126960952Y-115898095D01*
X127532381Y-116469524D01*
X127532381Y-115850476D01*
X126532381Y-114993333D02*
X126532381Y-115183810D01*
X126580000Y-115279048D01*
X126627619Y-115326667D01*
X126770476Y-115421905D01*
X126960952Y-115469524D01*
X127341905Y-115469524D01*
X127437143Y-115421905D01*
X127484762Y-115374286D01*
X127532381Y-115279048D01*
X127532381Y-115088571D01*
X127484762Y-114993333D01*
X127437143Y-114945714D01*
X127341905Y-114898095D01*
X127103810Y-114898095D01*
X127008571Y-114945714D01*
X126960952Y-114993333D01*
X126913333Y-115088571D01*
X126913333Y-115279048D01*
X126960952Y-115374286D01*
X127008571Y-115421905D01*
X127103810Y-115469524D01*
X158922381Y-101342857D02*
X158446190Y-101676191D01*
X158922381Y-101914286D02*
X157922381Y-101914286D01*
X157922381Y-101533333D01*
X157970000Y-101438095D01*
X158017619Y-101390476D01*
X158112857Y-101342857D01*
X158255714Y-101342857D01*
X158350952Y-101390476D01*
X158398571Y-101438095D01*
X158446190Y-101533333D01*
X158446190Y-101914286D01*
X158017619Y-100961905D02*
X157970000Y-100914286D01*
X157922381Y-100819048D01*
X157922381Y-100580952D01*
X157970000Y-100485714D01*
X158017619Y-100438095D01*
X158112857Y-100390476D01*
X158208095Y-100390476D01*
X158350952Y-100438095D01*
X158922381Y-101009524D01*
X158922381Y-100390476D01*
X158922381Y-99914286D02*
X158922381Y-99723810D01*
X158874762Y-99628571D01*
X158827143Y-99580952D01*
X158684286Y-99485714D01*
X158493810Y-99438095D01*
X158112857Y-99438095D01*
X158017619Y-99485714D01*
X157970000Y-99533333D01*
X157922381Y-99628571D01*
X157922381Y-99819048D01*
X157970000Y-99914286D01*
X158017619Y-99961905D01*
X158112857Y-100009524D01*
X158350952Y-100009524D01*
X158446190Y-99961905D01*
X158493810Y-99914286D01*
X158541429Y-99819048D01*
X158541429Y-99628571D01*
X158493810Y-99533333D01*
X158446190Y-99485714D01*
X158350952Y-99438095D01*
X147302381Y-116712857D02*
X146826190Y-117046191D01*
X147302381Y-117284286D02*
X146302381Y-117284286D01*
X146302381Y-116903333D01*
X146350000Y-116808095D01*
X146397619Y-116760476D01*
X146492857Y-116712857D01*
X146635714Y-116712857D01*
X146730952Y-116760476D01*
X146778571Y-116808095D01*
X146826190Y-116903333D01*
X146826190Y-117284286D01*
X146302381Y-116379524D02*
X146302381Y-115760476D01*
X146683333Y-116093810D01*
X146683333Y-115950952D01*
X146730952Y-115855714D01*
X146778571Y-115808095D01*
X146873810Y-115760476D01*
X147111905Y-115760476D01*
X147207143Y-115808095D01*
X147254762Y-115855714D01*
X147302381Y-115950952D01*
X147302381Y-116236667D01*
X147254762Y-116331905D01*
X147207143Y-116379524D01*
X146302381Y-115141429D02*
X146302381Y-115046190D01*
X146350000Y-114950952D01*
X146397619Y-114903333D01*
X146492857Y-114855714D01*
X146683333Y-114808095D01*
X146921429Y-114808095D01*
X147111905Y-114855714D01*
X147207143Y-114903333D01*
X147254762Y-114950952D01*
X147302381Y-115046190D01*
X147302381Y-115141429D01*
X147254762Y-115236667D01*
X147207143Y-115284286D01*
X147111905Y-115331905D01*
X146921429Y-115379524D01*
X146683333Y-115379524D01*
X146492857Y-115331905D01*
X146397619Y-115284286D01*
X146350000Y-115236667D01*
X146302381Y-115141429D01*
X149422381Y-116712857D02*
X148946190Y-117046191D01*
X149422381Y-117284286D02*
X148422381Y-117284286D01*
X148422381Y-116903333D01*
X148470000Y-116808095D01*
X148517619Y-116760476D01*
X148612857Y-116712857D01*
X148755714Y-116712857D01*
X148850952Y-116760476D01*
X148898571Y-116808095D01*
X148946190Y-116903333D01*
X148946190Y-117284286D01*
X148422381Y-116379524D02*
X148422381Y-115760476D01*
X148803333Y-116093810D01*
X148803333Y-115950952D01*
X148850952Y-115855714D01*
X148898571Y-115808095D01*
X148993810Y-115760476D01*
X149231905Y-115760476D01*
X149327143Y-115808095D01*
X149374762Y-115855714D01*
X149422381Y-115950952D01*
X149422381Y-116236667D01*
X149374762Y-116331905D01*
X149327143Y-116379524D01*
X149422381Y-114808095D02*
X149422381Y-115379524D01*
X149422381Y-115093810D02*
X148422381Y-115093810D01*
X148565238Y-115189048D01*
X148660476Y-115284286D01*
X148708095Y-115379524D01*
X161382381Y-101322857D02*
X160906190Y-101656191D01*
X161382381Y-101894286D02*
X160382381Y-101894286D01*
X160382381Y-101513333D01*
X160430000Y-101418095D01*
X160477619Y-101370476D01*
X160572857Y-101322857D01*
X160715714Y-101322857D01*
X160810952Y-101370476D01*
X160858571Y-101418095D01*
X160906190Y-101513333D01*
X160906190Y-101894286D01*
X160382381Y-100989524D02*
X160382381Y-100370476D01*
X160763333Y-100703810D01*
X160763333Y-100560952D01*
X160810952Y-100465714D01*
X160858571Y-100418095D01*
X160953810Y-100370476D01*
X161191905Y-100370476D01*
X161287143Y-100418095D01*
X161334762Y-100465714D01*
X161382381Y-100560952D01*
X161382381Y-100846667D01*
X161334762Y-100941905D01*
X161287143Y-100989524D01*
X160477619Y-99989524D02*
X160430000Y-99941905D01*
X160382381Y-99846667D01*
X160382381Y-99608571D01*
X160430000Y-99513333D01*
X160477619Y-99465714D01*
X160572857Y-99418095D01*
X160668095Y-99418095D01*
X160810952Y-99465714D01*
X161382381Y-100037143D01*
X161382381Y-99418095D01*
X156512381Y-109982857D02*
X156036190Y-110316191D01*
X156512381Y-110554286D02*
X155512381Y-110554286D01*
X155512381Y-110173333D01*
X155560000Y-110078095D01*
X155607619Y-110030476D01*
X155702857Y-109982857D01*
X155845714Y-109982857D01*
X155940952Y-110030476D01*
X155988571Y-110078095D01*
X156036190Y-110173333D01*
X156036190Y-110554286D01*
X155845714Y-109125714D02*
X156512381Y-109125714D01*
X155464762Y-109363810D02*
X156179048Y-109601905D01*
X156179048Y-108982857D01*
X155512381Y-108697143D02*
X155512381Y-108078095D01*
X155893333Y-108411429D01*
X155893333Y-108268571D01*
X155940952Y-108173333D01*
X155988571Y-108125714D01*
X156083810Y-108078095D01*
X156321905Y-108078095D01*
X156417143Y-108125714D01*
X156464762Y-108173333D01*
X156512381Y-108268571D01*
X156512381Y-108554286D01*
X156464762Y-108649524D01*
X156417143Y-108697143D01*
X176142381Y-108632857D02*
X175666190Y-108966191D01*
X176142381Y-109204286D02*
X175142381Y-109204286D01*
X175142381Y-108823333D01*
X175190000Y-108728095D01*
X175237619Y-108680476D01*
X175332857Y-108632857D01*
X175475714Y-108632857D01*
X175570952Y-108680476D01*
X175618571Y-108728095D01*
X175666190Y-108823333D01*
X175666190Y-109204286D01*
X175475714Y-107775714D02*
X176142381Y-107775714D01*
X175094762Y-108013810D02*
X175809048Y-108251905D01*
X175809048Y-107632857D01*
X175475714Y-106823333D02*
X176142381Y-106823333D01*
X175094762Y-107061429D02*
X175809048Y-107299524D01*
X175809048Y-106680476D01*
X156472381Y-101322857D02*
X155996190Y-101656191D01*
X156472381Y-101894286D02*
X155472381Y-101894286D01*
X155472381Y-101513333D01*
X155520000Y-101418095D01*
X155567619Y-101370476D01*
X155662857Y-101322857D01*
X155805714Y-101322857D01*
X155900952Y-101370476D01*
X155948571Y-101418095D01*
X155996190Y-101513333D01*
X155996190Y-101894286D01*
X155805714Y-100465714D02*
X156472381Y-100465714D01*
X155424762Y-100703810D02*
X156139048Y-100941905D01*
X156139048Y-100322857D01*
X155472381Y-99465714D02*
X155472381Y-99941905D01*
X155948571Y-99989524D01*
X155900952Y-99941905D01*
X155853333Y-99846667D01*
X155853333Y-99608571D01*
X155900952Y-99513333D01*
X155948571Y-99465714D01*
X156043810Y-99418095D01*
X156281905Y-99418095D01*
X156377143Y-99465714D01*
X156424762Y-99513333D01*
X156472381Y-99608571D01*
X156472381Y-99846667D01*
X156424762Y-99941905D01*
X156377143Y-99989524D01*
X137362381Y-101342857D02*
X136886190Y-101676191D01*
X137362381Y-101914286D02*
X136362381Y-101914286D01*
X136362381Y-101533333D01*
X136410000Y-101438095D01*
X136457619Y-101390476D01*
X136552857Y-101342857D01*
X136695714Y-101342857D01*
X136790952Y-101390476D01*
X136838571Y-101438095D01*
X136886190Y-101533333D01*
X136886190Y-101914286D01*
X136695714Y-100485714D02*
X137362381Y-100485714D01*
X136314762Y-100723810D02*
X137029048Y-100961905D01*
X137029048Y-100342857D01*
X136362381Y-99533333D02*
X136362381Y-99723810D01*
X136410000Y-99819048D01*
X136457619Y-99866667D01*
X136600476Y-99961905D01*
X136790952Y-100009524D01*
X137171905Y-100009524D01*
X137267143Y-99961905D01*
X137314762Y-99914286D01*
X137362381Y-99819048D01*
X137362381Y-99628571D01*
X137314762Y-99533333D01*
X137267143Y-99485714D01*
X137171905Y-99438095D01*
X136933810Y-99438095D01*
X136838571Y-99485714D01*
X136790952Y-99533333D01*
X136743333Y-99628571D01*
X136743333Y-99819048D01*
X136790952Y-99914286D01*
X136838571Y-99961905D01*
X136933810Y-100009524D01*
X135592381Y-113160857D02*
X135116190Y-113494191D01*
X135592381Y-113732286D02*
X134592381Y-113732286D01*
X134592381Y-113351333D01*
X134640000Y-113256095D01*
X134687619Y-113208476D01*
X134782857Y-113160857D01*
X134925714Y-113160857D01*
X135020952Y-113208476D01*
X135068571Y-113256095D01*
X135116190Y-113351333D01*
X135116190Y-113732286D01*
X134925714Y-112303714D02*
X135592381Y-112303714D01*
X134544762Y-112541810D02*
X135259048Y-112779905D01*
X135259048Y-112160857D01*
X134592381Y-111875143D02*
X134592381Y-111208476D01*
X135592381Y-111637048D01*
X154202381Y-110002857D02*
X153726190Y-110336191D01*
X154202381Y-110574286D02*
X153202381Y-110574286D01*
X153202381Y-110193333D01*
X153250000Y-110098095D01*
X153297619Y-110050476D01*
X153392857Y-110002857D01*
X153535714Y-110002857D01*
X153630952Y-110050476D01*
X153678571Y-110098095D01*
X153726190Y-110193333D01*
X153726190Y-110574286D01*
X153535714Y-109145714D02*
X154202381Y-109145714D01*
X153154762Y-109383810D02*
X153869048Y-109621905D01*
X153869048Y-109002857D01*
X153630952Y-108479048D02*
X153583333Y-108574286D01*
X153535714Y-108621905D01*
X153440476Y-108669524D01*
X153392857Y-108669524D01*
X153297619Y-108621905D01*
X153250000Y-108574286D01*
X153202381Y-108479048D01*
X153202381Y-108288571D01*
X153250000Y-108193333D01*
X153297619Y-108145714D01*
X153392857Y-108098095D01*
X153440476Y-108098095D01*
X153535714Y-108145714D01*
X153583333Y-108193333D01*
X153630952Y-108288571D01*
X153630952Y-108479048D01*
X153678571Y-108574286D01*
X153726190Y-108621905D01*
X153821429Y-108669524D01*
X154011905Y-108669524D01*
X154107143Y-108621905D01*
X154154762Y-108574286D01*
X154202381Y-108479048D01*
X154202381Y-108288571D01*
X154154762Y-108193333D01*
X154107143Y-108145714D01*
X154011905Y-108098095D01*
X153821429Y-108098095D01*
X153726190Y-108145714D01*
X153678571Y-108193333D01*
X153630952Y-108288571D01*
X173972381Y-108732857D02*
X173496190Y-109066191D01*
X173972381Y-109304286D02*
X172972381Y-109304286D01*
X172972381Y-108923333D01*
X173020000Y-108828095D01*
X173067619Y-108780476D01*
X173162857Y-108732857D01*
X173305714Y-108732857D01*
X173400952Y-108780476D01*
X173448571Y-108828095D01*
X173496190Y-108923333D01*
X173496190Y-109304286D01*
X173305714Y-107875714D02*
X173972381Y-107875714D01*
X172924762Y-108113810D02*
X173639048Y-108351905D01*
X173639048Y-107732857D01*
X173972381Y-107304286D02*
X173972381Y-107113810D01*
X173924762Y-107018571D01*
X173877143Y-106970952D01*
X173734286Y-106875714D01*
X173543810Y-106828095D01*
X173162857Y-106828095D01*
X173067619Y-106875714D01*
X173020000Y-106923333D01*
X172972381Y-107018571D01*
X172972381Y-107209048D01*
X173020000Y-107304286D01*
X173067619Y-107351905D01*
X173162857Y-107399524D01*
X173400952Y-107399524D01*
X173496190Y-107351905D01*
X173543810Y-107304286D01*
X173591429Y-107209048D01*
X173591429Y-107018571D01*
X173543810Y-106923333D01*
X173496190Y-106875714D01*
X173400952Y-106828095D01*
X154112381Y-101372857D02*
X153636190Y-101706191D01*
X154112381Y-101944286D02*
X153112381Y-101944286D01*
X153112381Y-101563333D01*
X153160000Y-101468095D01*
X153207619Y-101420476D01*
X153302857Y-101372857D01*
X153445714Y-101372857D01*
X153540952Y-101420476D01*
X153588571Y-101468095D01*
X153636190Y-101563333D01*
X153636190Y-101944286D01*
X153112381Y-100468095D02*
X153112381Y-100944286D01*
X153588571Y-100991905D01*
X153540952Y-100944286D01*
X153493333Y-100849048D01*
X153493333Y-100610952D01*
X153540952Y-100515714D01*
X153588571Y-100468095D01*
X153683810Y-100420476D01*
X153921905Y-100420476D01*
X154017143Y-100468095D01*
X154064762Y-100515714D01*
X154112381Y-100610952D01*
X154112381Y-100849048D01*
X154064762Y-100944286D01*
X154017143Y-100991905D01*
X153112381Y-99801429D02*
X153112381Y-99706190D01*
X153160000Y-99610952D01*
X153207619Y-99563333D01*
X153302857Y-99515714D01*
X153493333Y-99468095D01*
X153731429Y-99468095D01*
X153921905Y-99515714D01*
X154017143Y-99563333D01*
X154064762Y-99610952D01*
X154112381Y-99706190D01*
X154112381Y-99801429D01*
X154064762Y-99896667D01*
X154017143Y-99944286D01*
X153921905Y-99991905D01*
X153731429Y-100039524D01*
X153493333Y-100039524D01*
X153302857Y-99991905D01*
X153207619Y-99944286D01*
X153160000Y-99896667D01*
X153112381Y-99801429D01*
X139982381Y-101262857D02*
X139506190Y-101596191D01*
X139982381Y-101834286D02*
X138982381Y-101834286D01*
X138982381Y-101453333D01*
X139030000Y-101358095D01*
X139077619Y-101310476D01*
X139172857Y-101262857D01*
X139315714Y-101262857D01*
X139410952Y-101310476D01*
X139458571Y-101358095D01*
X139506190Y-101453333D01*
X139506190Y-101834286D01*
X138982381Y-100358095D02*
X138982381Y-100834286D01*
X139458571Y-100881905D01*
X139410952Y-100834286D01*
X139363333Y-100739048D01*
X139363333Y-100500952D01*
X139410952Y-100405714D01*
X139458571Y-100358095D01*
X139553810Y-100310476D01*
X139791905Y-100310476D01*
X139887143Y-100358095D01*
X139934762Y-100405714D01*
X139982381Y-100500952D01*
X139982381Y-100739048D01*
X139934762Y-100834286D01*
X139887143Y-100881905D01*
X139982381Y-99358095D02*
X139982381Y-99929524D01*
X139982381Y-99643810D02*
X138982381Y-99643810D01*
X139125238Y-99739048D01*
X139220476Y-99834286D01*
X139268095Y-99929524D01*
X141532381Y-113160857D02*
X141056190Y-113494191D01*
X141532381Y-113732286D02*
X140532381Y-113732286D01*
X140532381Y-113351333D01*
X140580000Y-113256095D01*
X140627619Y-113208476D01*
X140722857Y-113160857D01*
X140865714Y-113160857D01*
X140960952Y-113208476D01*
X141008571Y-113256095D01*
X141056190Y-113351333D01*
X141056190Y-113732286D01*
X140532381Y-112256095D02*
X140532381Y-112732286D01*
X141008571Y-112779905D01*
X140960952Y-112732286D01*
X140913333Y-112637048D01*
X140913333Y-112398952D01*
X140960952Y-112303714D01*
X141008571Y-112256095D01*
X141103810Y-112208476D01*
X141341905Y-112208476D01*
X141437143Y-112256095D01*
X141484762Y-112303714D01*
X141532381Y-112398952D01*
X141532381Y-112637048D01*
X141484762Y-112732286D01*
X141437143Y-112779905D01*
X140627619Y-111827524D02*
X140580000Y-111779905D01*
X140532381Y-111684667D01*
X140532381Y-111446571D01*
X140580000Y-111351333D01*
X140627619Y-111303714D01*
X140722857Y-111256095D01*
X140818095Y-111256095D01*
X140960952Y-111303714D01*
X141532381Y-111875143D01*
X141532381Y-111256095D01*
X127284762Y-85922381D02*
X126951428Y-85446190D01*
X126713333Y-85922381D02*
X126713333Y-84922381D01*
X127094286Y-84922381D01*
X127189524Y-84970000D01*
X127237143Y-85017619D01*
X127284762Y-85112857D01*
X127284762Y-85255714D01*
X127237143Y-85350952D01*
X127189524Y-85398571D01*
X127094286Y-85446190D01*
X126713333Y-85446190D01*
X127570476Y-84922381D02*
X127903809Y-85922381D01*
X128237143Y-84922381D01*
X129094286Y-85922381D02*
X128522857Y-85922381D01*
X128808571Y-85922381D02*
X128808571Y-84922381D01*
X128713333Y-85065238D01*
X128618095Y-85160476D01*
X128522857Y-85208095D01*
X129872381Y-110301905D02*
X130681905Y-110301905D01*
X130777143Y-110254286D01*
X130824762Y-110206667D01*
X130872381Y-110111429D01*
X130872381Y-109920952D01*
X130824762Y-109825714D01*
X130777143Y-109778095D01*
X130681905Y-109730476D01*
X129872381Y-109730476D01*
X130872381Y-108730476D02*
X130872381Y-109301905D01*
X130872381Y-109016191D02*
X129872381Y-109016191D01*
X130015238Y-109111429D01*
X130110476Y-109206667D01*
X130158095Y-109301905D01*
X72342381Y-122311905D02*
X73151905Y-122311905D01*
X73247143Y-122264286D01*
X73294762Y-122216667D01*
X73342381Y-122121429D01*
X73342381Y-121930952D01*
X73294762Y-121835714D01*
X73247143Y-121788095D01*
X73151905Y-121740476D01*
X72342381Y-121740476D01*
X72342381Y-121359524D02*
X72342381Y-120740476D01*
X72723333Y-121073810D01*
X72723333Y-120930952D01*
X72770952Y-120835714D01*
X72818571Y-120788095D01*
X72913810Y-120740476D01*
X73151905Y-120740476D01*
X73247143Y-120788095D01*
X73294762Y-120835714D01*
X73342381Y-120930952D01*
X73342381Y-121216667D01*
X73294762Y-121311905D01*
X73247143Y-121359524D01*
X116072381Y-122681905D02*
X116881905Y-122681905D01*
X116977143Y-122634286D01*
X117024762Y-122586667D01*
X117072381Y-122491429D01*
X117072381Y-122300952D01*
X117024762Y-122205714D01*
X116977143Y-122158095D01*
X116881905Y-122110476D01*
X116072381Y-122110476D01*
X116405714Y-121205714D02*
X117072381Y-121205714D01*
X116024762Y-121443810D02*
X116739048Y-121681905D01*
X116739048Y-121062857D01*
X173882381Y-86541905D02*
X174691905Y-86541905D01*
X174787143Y-86494286D01*
X174834762Y-86446667D01*
X174882381Y-86351429D01*
X174882381Y-86160952D01*
X174834762Y-86065714D01*
X174787143Y-86018095D01*
X174691905Y-85970476D01*
X173882381Y-85970476D01*
X173882381Y-85018095D02*
X173882381Y-85494286D01*
X174358571Y-85541905D01*
X174310952Y-85494286D01*
X174263333Y-85399048D01*
X174263333Y-85160952D01*
X174310952Y-85065714D01*
X174358571Y-85018095D01*
X174453810Y-84970476D01*
X174691905Y-84970476D01*
X174787143Y-85018095D01*
X174834762Y-85065714D01*
X174882381Y-85160952D01*
X174882381Y-85399048D01*
X174834762Y-85494286D01*
X174787143Y-85541905D01*
X103886095Y-106712381D02*
X103886095Y-107521905D01*
X103933714Y-107617143D01*
X103981333Y-107664762D01*
X104076571Y-107712381D01*
X104267048Y-107712381D01*
X104362286Y-107664762D01*
X104409905Y-107617143D01*
X104457524Y-107521905D01*
X104457524Y-106712381D01*
X105362286Y-106712381D02*
X105171809Y-106712381D01*
X105076571Y-106760000D01*
X105028952Y-106807619D01*
X104933714Y-106950476D01*
X104886095Y-107140952D01*
X104886095Y-107521905D01*
X104933714Y-107617143D01*
X104981333Y-107664762D01*
X105076571Y-107712381D01*
X105267048Y-107712381D01*
X105362286Y-107664762D01*
X105409905Y-107617143D01*
X105457524Y-107521905D01*
X105457524Y-107283810D01*
X105409905Y-107188571D01*
X105362286Y-107140952D01*
X105267048Y-107093333D01*
X105076571Y-107093333D01*
X104981333Y-107140952D01*
X104933714Y-107188571D01*
X104886095Y-107283810D01*
X98202381Y-128531905D02*
X99011905Y-128531905D01*
X99107143Y-128484286D01*
X99154762Y-128436667D01*
X99202381Y-128341429D01*
X99202381Y-128150952D01*
X99154762Y-128055714D01*
X99107143Y-128008095D01*
X99011905Y-127960476D01*
X98202381Y-127960476D01*
X98630952Y-127341429D02*
X98583333Y-127436667D01*
X98535714Y-127484286D01*
X98440476Y-127531905D01*
X98392857Y-127531905D01*
X98297619Y-127484286D01*
X98250000Y-127436667D01*
X98202381Y-127341429D01*
X98202381Y-127150952D01*
X98250000Y-127055714D01*
X98297619Y-127008095D01*
X98392857Y-126960476D01*
X98440476Y-126960476D01*
X98535714Y-127008095D01*
X98583333Y-127055714D01*
X98630952Y-127150952D01*
X98630952Y-127341429D01*
X98678571Y-127436667D01*
X98726190Y-127484286D01*
X98821429Y-127531905D01*
X99011905Y-127531905D01*
X99107143Y-127484286D01*
X99154762Y-127436667D01*
X99202381Y-127341429D01*
X99202381Y-127150952D01*
X99154762Y-127055714D01*
X99107143Y-127008095D01*
X99011905Y-126960476D01*
X98821429Y-126960476D01*
X98726190Y-127008095D01*
X98678571Y-127055714D01*
X98630952Y-127150952D01*
X161322381Y-109358095D02*
X162131905Y-109358095D01*
X162227143Y-109310476D01*
X162274762Y-109262857D01*
X162322381Y-109167619D01*
X162322381Y-108977142D01*
X162274762Y-108881904D01*
X162227143Y-108834285D01*
X162131905Y-108786666D01*
X161322381Y-108786666D01*
X162322381Y-107786666D02*
X162322381Y-108358095D01*
X162322381Y-108072381D02*
X161322381Y-108072381D01*
X161465238Y-108167619D01*
X161560476Y-108262857D01*
X161608095Y-108358095D01*
X161322381Y-107167619D02*
X161322381Y-107072380D01*
X161370000Y-106977142D01*
X161417619Y-106929523D01*
X161512857Y-106881904D01*
X161703333Y-106834285D01*
X161941429Y-106834285D01*
X162131905Y-106881904D01*
X162227143Y-106929523D01*
X162274762Y-106977142D01*
X162322381Y-107072380D01*
X162322381Y-107167619D01*
X162274762Y-107262857D01*
X162227143Y-107310476D01*
X162131905Y-107358095D01*
X161941429Y-107405714D01*
X161703333Y-107405714D01*
X161512857Y-107358095D01*
X161417619Y-107310476D01*
X161370000Y-107262857D01*
X161322381Y-107167619D01*
X139032381Y-123008095D02*
X139841905Y-123008095D01*
X139937143Y-122960476D01*
X139984762Y-122912857D01*
X140032381Y-122817619D01*
X140032381Y-122627142D01*
X139984762Y-122531904D01*
X139937143Y-122484285D01*
X139841905Y-122436666D01*
X139032381Y-122436666D01*
X140032381Y-121436666D02*
X140032381Y-122008095D01*
X140032381Y-121722381D02*
X139032381Y-121722381D01*
X139175238Y-121817619D01*
X139270476Y-121912857D01*
X139318095Y-122008095D01*
X140032381Y-120484285D02*
X140032381Y-121055714D01*
X140032381Y-120770000D02*
X139032381Y-120770000D01*
X139175238Y-120865238D01*
X139270476Y-120960476D01*
X139318095Y-121055714D01*
X149922381Y-121828095D02*
X150731905Y-121828095D01*
X150827143Y-121780476D01*
X150874762Y-121732857D01*
X150922381Y-121637619D01*
X150922381Y-121447142D01*
X150874762Y-121351904D01*
X150827143Y-121304285D01*
X150731905Y-121256666D01*
X149922381Y-121256666D01*
X150922381Y-120256666D02*
X150922381Y-120828095D01*
X150922381Y-120542381D02*
X149922381Y-120542381D01*
X150065238Y-120637619D01*
X150160476Y-120732857D01*
X150208095Y-120828095D01*
X149922381Y-119923333D02*
X149922381Y-119304285D01*
X150303333Y-119637619D01*
X150303333Y-119494761D01*
X150350952Y-119399523D01*
X150398571Y-119351904D01*
X150493810Y-119304285D01*
X150731905Y-119304285D01*
X150827143Y-119351904D01*
X150874762Y-119399523D01*
X150922381Y-119494761D01*
X150922381Y-119780476D01*
X150874762Y-119875714D01*
X150827143Y-119923333D01*
X140452381Y-109948095D02*
X141261905Y-109948095D01*
X141357143Y-109900476D01*
X141404762Y-109852857D01*
X141452381Y-109757619D01*
X141452381Y-109567142D01*
X141404762Y-109471904D01*
X141357143Y-109424285D01*
X141261905Y-109376666D01*
X140452381Y-109376666D01*
X141452381Y-108376666D02*
X141452381Y-108948095D01*
X141452381Y-108662381D02*
X140452381Y-108662381D01*
X140595238Y-108757619D01*
X140690476Y-108852857D01*
X140738095Y-108948095D01*
X140785714Y-107519523D02*
X141452381Y-107519523D01*
X140404762Y-107757619D02*
X141119048Y-107995714D01*
X141119048Y-107376666D01*
X73450000Y-140747143D02*
X73497619Y-140794762D01*
X73450000Y-140842381D01*
X73402381Y-140794762D01*
X73450000Y-140747143D01*
X73450000Y-140842381D01*
X176540000Y-140877143D02*
X176587619Y-140924762D01*
X176540000Y-140972381D01*
X176492381Y-140924762D01*
X176540000Y-140877143D01*
X176540000Y-140972381D01*
X158430000Y-87577143D02*
X158477619Y-87624762D01*
X158430000Y-87672381D01*
X158382381Y-87624762D01*
X158430000Y-87577143D01*
X158430000Y-87672381D01*
X92170000Y-87507143D02*
X92217619Y-87554762D01*
X92170000Y-87602381D01*
X92122381Y-87554762D01*
X92170000Y-87507143D01*
X92170000Y-87602381D01*
M02*
